<svg xmlns="http://www.w3.org/2000/svg" xmlns:xlink="http://www.w3.org/1999/xlink" width="814.388" height="656.695" viewBox="0 0 814.388 656.695">
  <defs>
    <clipPath id="clip-path">
      <path id="Path_128" data-name="Path 128" d="M283.982,376.961l6.15,71.79c0,3.274,13.875,5.928,38.578,5.928s36.9-2.654,36.9-5.928l7.828-71.79Z" transform="translate(-283.982 -376.961)" fill="none"/>
    </clipPath>
    <clipPath id="clip-path-2">
      <rect id="Rectangle_21" data-name="Rectangle 21" width="118.14" height="83.792" fill="none"/>
    </clipPath>
    <clipPath id="clip-path-3">
      <path id="Path_278" data-name="Path 278" d="M403.738,313.816,422.69,220.35h76.835l-21.27,87.759Z" transform="translate(-403.738 -220.35)" fill="none"/>
    </clipPath>
  </defs>
  <g id="Group_60" data-name="Group 60" transform="translate(-267.227 -45.656)">
    <g id="Group_21" data-name="Group 21" transform="translate(267.227 402.83)">
      <path id="Path_105" data-name="Path 105" d="M313.683,301.572c-3.377,6.13-2.782,17.824-1.065,24.608s4.379,13.422,4.7,20.412c.621,13.371-7.267,25.458-11.159,38.263a54.821,54.821,0,0,0-1.812,25.672,41.247,41.247,0,0,0,11.907,22.6" transform="translate(-241.43 -221.167)" fill="none" stroke="#12444e" stroke-miterlimit="10" stroke-width="3"/>
      <path id="Path_106" data-name="Path 106" d="M304.472,323.51a39.889,39.889,0,0,1-6.364-4.338,9.022,9.022,0,0,1-3.2-6.754c.123-2.568,2.235-5.1,4.806-5.049a10.507,10.507,0,0,0,1.446.048c1.636-.195,2.585-2.118,2.373-3.751a10.791,10.791,0,0,0-2.148-4.4c-1.706-2.548-3.216-5.4-3.25-8.465s1.829-6.338,4.823-7a27.433,27.433,0,0,0,2.914-.467c3.093-1.043,3.493-5.181,3.387-8.443-.13-4.049-.157-8.2,1.185-12.019s4.329-7.3,8.289-8.147a6.717,6.717,0,0,1,4.627.54c3.045,1.686,3.657,5.749,3.692,9.228s.015,7.411,2.519,9.827c3.464,3.341,10.487,2.416,12.181,6.921,1.744,4.637-4.624,9.623-2.6,14.146.648,1.452,2.043,2.426,2.9,3.768,1.426,2.238,1.142,5.229.005,7.628a28.128,28.128,0,0,1-4.774,6.34,100.516,100.516,0,0,0-8.435,10.909c-2.659,3.969-5.754,9.291-8.534,13.092-3.232,4.42-2.987-1.706-5.478-4.728A42.45,42.45,0,0,0,304.472,323.51Z" transform="translate(-247.582 -254.548)" fill="#082e38"/>
      <g id="Group_16" data-name="Group 16" transform="translate(57.556 7.016)">
        <path id="Path_107" data-name="Path 107" d="M310.721,259.457a140.068,140.068,0,0,0-3.857,27.18,95.019,95.019,0,0,0,.12,11.318c.978,12.733,5.357,19.446,2.714,31.94" transform="translate(-296.725 -258.079)" fill="none" stroke="#00b0cd" stroke-miterlimit="10" stroke-width="1"/>
        <path id="Path_108" data-name="Path 108" d="M305.249,258.651a18.24,18.24,0,0,0,3.7,11.07" transform="translate(-297.792 -258.651)" fill="none" stroke="#00b0cd" stroke-miterlimit="10" stroke-width="1"/>
        <path id="Path_109" data-name="Path 109" d="M307.92,268.188a14.117,14.117,0,0,0,7.752-7.6" transform="translate(-295.896 -257.279)" fill="none" stroke="#00b0cd" stroke-miterlimit="10" stroke-width="1"/>
        <path id="Path_110" data-name="Path 110" d="M304.017,269.06c.882,3.05,2.1,6.492,5.058,7.657" transform="translate(-298.667 -251.262)" fill="none" stroke="#00b0cd" stroke-miterlimit="10" stroke-width="1"/>
        <path id="Path_111" data-name="Path 111" d="M307.149,278.124a40.359,40.359,0,0,0,8.423-6.253,10.7,10.7,0,0,0,3.44-5.331" transform="translate(-296.444 -253.051)" fill="none" stroke="#00b0cd" stroke-miterlimit="10" stroke-width="1"/>
        <path id="Path_112" data-name="Path 112" d="M300.888,275.22a19.551,19.551,0,0,0,10.392,12.709" transform="translate(-300.888 -246.889)" fill="none" stroke="#00b0cd" stroke-miterlimit="10" stroke-width="1"/>
        <path id="Path_113" data-name="Path 113" d="M306.978,289.492a34.286,34.286,0,0,0,17.7-17.3" transform="translate(-296.565 -249.038)" fill="none" stroke="#00b0cd" stroke-miterlimit="10" stroke-width="1"/>
        <path id="Path_114" data-name="Path 114" d="M300.927,287.569a30.714,30.714,0,0,0,12.207,9.591" transform="translate(-300.86 -238.123)" fill="none" stroke="#00b0cd" stroke-miterlimit="10" stroke-width="1"/>
        <path id="Path_115" data-name="Path 115" d="M308.058,298.192c1.922-1.349,4.078-2.336,6-3.69a18.987,18.987,0,0,0,6.617-8.359" transform="translate(-295.798 -239.136)" fill="none" stroke="#00b0cd" stroke-miterlimit="10" stroke-width="1"/>
      </g>
      <path id="Path_116" data-name="Path 116" d="M321.017,361.672c-2.973.956-5.554,2.825-8.315,4.285s-5.972,2.529-8.989,1.71-5.461-4.181-4.328-7.092a2.9,2.9,0,0,0,.352-1.281c-.1-1.076-1.537-1.349-2.616-1.293-4.2.222-9.235.682-11.777-2.669-2.814-3.71-.292-9.223-1.853-13.61-1.149-3.228-4.258-5.244-6.93-7.388-3.493-2.8-6.6-6.344-7.846-10.647s-.257-9.449,3.233-12.256c3.165-2.546,7.614-2.732,11.641-2.207a21.964,21.964,0,0,1,8.339,2.567c2.83,1.66,5.921,4.37,8.908,3.014,1.563-.711,2.51-2.4,4.068-3.117,3.124-1.448,6.482,1.659,7.978,4.76,1.009,2.091,2.394,4.767,4.694,4.459,1.243-.166,2.166-1.217,3.317-1.712,1.992-.857,4.4.14,5.8,1.8a13.709,13.709,0,0,1,2.476,5.947,82.952,82.952,0,0,1,1.865,23.487c-.132,2.067.092,9.946-1.554,11.287C328.387,362.6,323.213,360.966,321.017,361.672Z" transform="translate(-266.536 -215.905)" fill="#12444e"/>
      <g id="Group_17" data-name="Group 17" transform="translate(7.44 96.575)">
        <path id="Path_117" data-name="Path 117" d="M273.791,313.579c10.574,10.813,23.666,18.737,36.054,27.412,1.968,1.378,3.924,2.78,5.752,4.338,5.046,4.3,7.576,7.063,9.32,10.285" transform="translate(-270.007 -309.219)" fill="none" stroke="#00b0cd" stroke-miterlimit="10" stroke-width="1"/>
        <path id="Path_118" data-name="Path 118" d="M271.578,318.195c4.468,2.524,9.89,2.469,15.014,2.242" transform="translate(-271.578 -305.942)" fill="none" stroke="#00b0cd" stroke-miterlimit="10" stroke-width="1"/>
        <path id="Path_119" data-name="Path 119" d="M277.238,311.029a44.768,44.768,0,0,1,5.289,11.174,4.356,4.356,0,0,1,.19,2.861" transform="translate(-267.56 -311.029)" fill="none" stroke="#00b0cd" stroke-miterlimit="10" stroke-width="1"/>
        <path id="Path_120" data-name="Path 120" d="M276.764,324.729l7.063.855c3.969.48,8.124.94,11.856-.487" transform="translate(-267.897 -301.304)" fill="none" stroke="#00b0cd" stroke-miterlimit="10" stroke-width="1"/>
        <path id="Path_121" data-name="Path 121" d="M284.879,314.358q1.7,4.445,3.392,8.891c1.048,2.744,2.112,5.607,1.853,8.532" transform="translate(-262.136 -308.666)" fill="none" stroke="#00b0cd" stroke-miterlimit="10" stroke-width="1"/>
        <path id="Path_122" data-name="Path 122" d="M281.671,331.569a38.466,38.466,0,0,0,21.4,1.715,13.592,13.592,0,0,0,4.719-1.73" transform="translate(-264.413 -296.459)" fill="none" stroke="#00b0cd" stroke-miterlimit="10" stroke-width="1"/>
        <path id="Path_123" data-name="Path 123" d="M294.1,316.19q1.1,3.114,2.207,6.227c2.047,5.771,4.124,11.892,2.926,17.9" transform="translate(-255.592 -307.365)" fill="none" stroke="#00b0cd" stroke-miterlimit="10" stroke-width="1"/>
        <path id="Path_124" data-name="Path 124" d="M293.151,337.941a20.1,20.1,0,0,0,14.823-1.828" transform="translate(-256.264 -293.223)" fill="none" stroke="#00b0cd" stroke-miterlimit="10" stroke-width="1"/>
        <path id="Path_125" data-name="Path 125" d="M302.341,324.975A45.077,45.077,0,0,1,304,334.159a15.112,15.112,0,0,1-2.163,8.939" transform="translate(-250.1 -301.129)" fill="none" stroke="#00b0cd" stroke-miterlimit="10" stroke-width="1"/>
      </g>
      <path id="Path_126" data-name="Path 126" d="M283.982,376.961l6.15,71.79c0,3.274,13.875,5.928,38.578,5.928s36.9-2.654,36.9-5.928l7.828-71.79Z" transform="translate(-255.333 -167.652)" fill="#ffa629"/>
      <g id="Group_19" data-name="Group 19" transform="translate(28.649 209.309)">
        <g id="Group_18" data-name="Group 18" clip-path="url(#clip-path)">
          <path id="Path_127" data-name="Path 127" d="M283.856,368.232a271.406,271.406,0,0,0,4.442,54.854c.7,3.78,1.5,7.622,3.43,10.95,1.823,3.146,4.546,5.654,7.25,8.086q6.2,5.573,12.545,10.977a59.316,59.316,0,0,0,11.29,8.108,31.459,31.459,0,0,0,24.082,1.7" transform="translate(-284.113 -383.157)" fill="none" stroke="#a08d20" stroke-miterlimit="10" stroke-width="1.241" opacity="0.29" style="mix-blend-mode: multiply;isolation: isolate"/>
        </g>
      </g>
      <ellipse id="Ellipse_1" data-name="Ellipse 1" cx="44.727" cy="5.032" rx="44.727" ry="5.032" transform="translate(28.649 204.278)" fill="#12444e"/>
      <path id="Path_129" data-name="Path 129" d="M301.219,354.448a23.278,23.278,0,0,0-8.724,1.879c-2.681,1.335-4.943,3.9-5.1,6.889a17.169,17.169,0,0,1-.1,3.071c-.537,2.278-2.975,3.468-5.126,4.382-4.639,1.973-9.85,4.921-10.413,9.931-.265,2.344.6,4.685.511,7.043-.231,5.921-6.361,11.056-4.786,16.77.9,3.283,4.369,5.461,7.775,5.5a12.734,12.734,0,0,0,9.014-4.187c2.064-2.13,3.738-4.878,6.513-5.923,4.066-1.529,8.428,1.262,12.767,1.452,6.467.282,12.237-6.48,10.945-12.822a6.727,6.727,0,0,1-.292-3.158c.292-1.029,1.662-1.8,2.45-1.081a5.25,5.25,0,0,1,.633.951,2.658,2.658,0,0,0,3.428.52,5.57,5.57,0,0,0,2.211-3.008c2.806-7.573-1.5-15.445-1.154-23.134.248-5.449.1-5.446-5.75-5.521Q308.615,353.9,301.219,354.448Z" transform="translate(-267.227 -183.961)" fill="#082e38"/>
      <g id="Group_20" data-name="Group 20" transform="translate(6.532 172.509)">
        <path id="Path_130" data-name="Path 130" d="M271.047,401.06q17.848-18.872,35.695-37.745c2.78-2.938,5.619-5.925,9.161-7.876" transform="translate(-271.047 -355.439)" fill="none" stroke="#00b0cd" stroke-miterlimit="10" stroke-width="1"/>
        <path id="Path_131" data-name="Path 131" d="M287.664,371.277c-2.089,1.783-4.9,2.4-7.438,3.439a22.354,22.354,0,0,0-7.975,5.566" transform="translate(-270.192 -344.196)" fill="none" stroke="#00b0cd" stroke-miterlimit="10" stroke-width="1"/>
        <path id="Path_132" data-name="Path 132" d="M279.744,372.714l.723,2.717a20.443,20.443,0,0,1,.836,4.449,6.881,6.881,0,0,1-1.134,4.307" transform="translate(-264.873 -343.176)" fill="none" stroke="#00b0cd" stroke-miterlimit="10" stroke-width="1"/>
        <path id="Path_133" data-name="Path 133" d="M292.49,367.069c-2.074,1.034-4.48,1.077-6.788,1.3a40.074,40.074,0,0,0-10.678,2.553" transform="translate(-268.224 -347.183)" fill="none" stroke="#00b0cd" stroke-miterlimit="10" stroke-width="1"/>
        <path id="Path_134" data-name="Path 134" d="M285.238,367.832c.694,2.924,2.165,5.6,3.2,8.416s1.626,6,.516,8.794" transform="translate(-260.973 -346.642)" fill="none" stroke="#00b0cd" stroke-miterlimit="10" stroke-width="1"/>
        <path id="Path_135" data-name="Path 135" d="M281.9,362.8c5.56-.585,10.924-3.529,16.454-2.695" transform="translate(-263.342 -352.232)" fill="none" stroke="#00b0cd" stroke-miterlimit="10" stroke-width="1"/>
        <path id="Path_136" data-name="Path 136" d="M291.847,360.537a21.729,21.729,0,0,1,1.506,19.07" transform="translate(-256.282 -351.82)" fill="none" stroke="#00b0cd" stroke-miterlimit="10" stroke-width="1"/>
      </g>
      <path id="Path_137" data-name="Path 137" d="M312.583,308.746a14.137,14.137,0,0,0-4.365,6.662" transform="translate(-238.129 -216.075)" fill="none" stroke="#12444e" stroke-miterlimit="10" stroke-width="2"/>
      <path id="Path_138" data-name="Path 138" d="M304.028,338.723a23.362,23.362,0,0,1,3.491,14.045" transform="translate(-241.103 -194.795)" fill="none" stroke="#12444e" stroke-miterlimit="10" stroke-width="2"/>
      <path id="Path_139" data-name="Path 139" d="M318.692,332.228a7.22,7.22,0,0,0-8.17,3.7" transform="translate(-236.494 -199.571)" fill="none" stroke="#12444e" stroke-miterlimit="10" stroke-width="2"/>
      <path id="Path_140" data-name="Path 140" d="M298.8,355.632a5.939,5.939,0,0,1,3.869-2.6,3.651,3.651,0,0,1,3.9,2.1" transform="translate(-244.811 -184.66)" fill="none" stroke="#12444e" stroke-miterlimit="10" stroke-width="2"/>
    </g>
    <g id="Group_28" data-name="Group 28" transform="translate(353.515 54.024)">
      <g id="Group_22" data-name="Group 22" transform="translate(19.713 320.945)" opacity="0.4">
        <line id="Line_3" data-name="Line 3" x2="13.752" transform="translate(0 6.876)" fill="none" stroke="#fff" stroke-linecap="round" stroke-linejoin="round" stroke-width="2.475"/>
        <line id="Line_4" data-name="Line 4" y1="13.751" transform="translate(6.876)" fill="none" stroke="#fff" stroke-linecap="round" stroke-linejoin="round" stroke-width="2.475"/>
      </g>
      <g id="Group_23" data-name="Group 23" transform="translate(666.371 83.746)" opacity="0.3">
        <line id="Line_5" data-name="Line 5" x2="13.752" transform="translate(0 6.876)" fill="none" stroke="#fff" stroke-linecap="round" stroke-linejoin="round" stroke-width="2.475"/>
        <line id="Line_6" data-name="Line 6" y1="13.752" transform="translate(6.876)" fill="none" stroke="#fff" stroke-linecap="round" stroke-linejoin="round" stroke-width="2.475"/>
      </g>
      <g id="Group_24" data-name="Group 24" transform="translate(95.625 76.797)" opacity="0.4">
        <line id="Line_7" data-name="Line 7" x2="16.298" transform="translate(0 8.149)" fill="none" stroke="#fff" stroke-linecap="round" stroke-linejoin="round" stroke-width="1.714"/>
        <line id="Line_8" data-name="Line 8" y1="16.298" transform="translate(8.149)" fill="none" stroke="#fff" stroke-linecap="round" stroke-linejoin="round" stroke-width="1.714"/>
      </g>
      <g id="Group_25" data-name="Group 25" transform="translate(295.234 70.274)" opacity="0.3">
        <line id="Line_9" data-name="Line 9" x2="13.752" transform="translate(0 6.876)" fill="none" stroke="#fff" stroke-linecap="round" stroke-linejoin="round" stroke-width="2.475"/>
        <line id="Line_10" data-name="Line 10" y1="13.751" transform="translate(6.876)" fill="none" stroke="#fff" stroke-linecap="round" stroke-linejoin="round" stroke-width="2.475"/>
      </g>
      <g id="Group_26" data-name="Group 26" transform="translate(187.675 317.17)">
        <line id="Line_11" data-name="Line 11" x2="9.689" transform="translate(0 4.844)" fill="none" stroke="#fff" stroke-linecap="round" stroke-linejoin="round" stroke-width="1.743"/>
        <line id="Line_12" data-name="Line 12" y1="9.688" transform="translate(4.844)" fill="none" stroke="#fff" stroke-linecap="round" stroke-linejoin="round" stroke-width="1.743"/>
      </g>
      <g id="Group_27" data-name="Group 27" transform="translate(495.903)" opacity="0.3">
        <line id="Line_13" data-name="Line 13" x2="6.876" transform="translate(0 3.438)" fill="none" stroke="#fff" stroke-linecap="round" stroke-linejoin="round" stroke-width="1.237"/>
        <line id="Line_14" data-name="Line 14" y1="6.876" transform="translate(3.438)" fill="none" stroke="#fff" stroke-linecap="round" stroke-linejoin="round" stroke-width="1.237"/>
      </g>
      <path id="Path_141" data-name="Path 141" d="M455.369,96.509a7.974,7.974,0,1,1-7.975-7.975A7.974,7.974,0,0,1,455.369,96.509Z" transform="translate(-231.282 -23.587)" fill="none" stroke="#fff" stroke-linecap="round" stroke-linejoin="round" stroke-width="2.112" opacity="0.7"/>
      <circle id="Ellipse_2" data-name="Ellipse 2" cx="3.987" cy="3.987" r="3.987" transform="translate(677.103 314.984)" fill="none" stroke="#fff" stroke-linecap="round" stroke-linejoin="round" stroke-width="1.056"/>
      <path id="Path_142" data-name="Path 142" d="M573.817,90.088a7.974,7.974,0,1,1-7.975-7.973A7.974,7.974,0,0,1,573.817,90.088Z" transform="translate(-147.201 -28.143)" fill="none" stroke="#fff" stroke-linecap="round" stroke-linejoin="round" stroke-width="2.112" opacity="0.7"/>
      <path id="Path_143" data-name="Path 143" d="M684.15,149.515a8.7,8.7,0,1,1-8.7-8.7A8.7,8.7,0,0,1,684.15,149.515Z" transform="translate(-69.909 13.526)" fill="none" stroke="#fff" stroke-linecap="round" stroke-linejoin="round" stroke-width="0.535"/>
      <path id="Path_144" data-name="Path 144" d="M736.412,187.25a6.3,6.3,0,1,1-6.3-6.3A6.3,6.3,0,0,1,736.412,187.25Z" transform="translate(-29.411 42.013)" fill="none" stroke="#fff" stroke-linecap="round" stroke-linejoin="round" stroke-width="0.619"/>
      <path id="Path_145" data-name="Path 145" d="M330.3,177.492a6.3,6.3,0,1,1-6.3-6.3A6.3,6.3,0,0,1,330.3,177.492Z" transform="translate(-317.692 35.086)" fill="none" stroke="#fff" stroke-linecap="round" stroke-linejoin="round" stroke-width="0.619"/>
    </g>
    <g id="Group_29" data-name="Group 29" transform="translate(476.716 482.098)">
      <rect id="Rectangle_7" data-name="Rectangle 7" width="103.818" height="61.918" transform="translate(0 0)" fill="#6c80ff"/>
      <rect id="Rectangle_8" data-name="Rectangle 8" width="114.06" height="67.97" transform="translate(72.626 20.95)" fill="#fffe7f"/>
      <path id="Path_146" data-name="Path 146" d="M395.3,308.974l56.977.792q15.189.213,30.377.422" transform="translate(-385.803 -295.18)" fill="none" stroke="#abcdff" stroke-miterlimit="10" stroke-width="0.834"/>
      <path id="Path_147" data-name="Path 147" d="M395.293,315.951q26.109-.5,52.219.619" transform="translate(-385.807 -290.337)" fill="none" stroke="#abcdff" stroke-miterlimit="10" stroke-width="0.834"/>
      <path id="Path_148" data-name="Path 148" d="M394.942,324.326a311.805,311.805,0,0,1,53.732-1.26" transform="translate(-386.056 -285.614)" fill="none" stroke="#abcdff" stroke-miterlimit="10" stroke-width="0.834"/>
      <path id="Path_149" data-name="Path 149" d="M395.257,331.169c12.087-.513,28.079-1.019,40.173-1.282a37.166,37.166,0,0,1,10.375.759" transform="translate(-385.833 -280.363)" fill="none" stroke="#abcdff" stroke-miterlimit="10" stroke-width="0.834"/>
      <path id="Path_150" data-name="Path 150" d="M461.809,325.694c-.282-2.457-3.108-4.02-5.552-3.64s-4.437,2.185-5.878,4.194c-6.094,8.507-4.057,20.886,2.262,29.223,3.55,4.682,9,8.659,14.831,7.927a12.815,12.815,0,0,0,9.808-7.776,17.309,17.309,0,0,0-.053-12.786c-.922-2.418-2.462-4.806-4.871-5.749s-5.718.267-6.186,2.813a6.863,6.863,0,0,0,.734,3.751c1.11,2.725,2.358,5.492,4.5,7.517s5.381,3.143,8.1,2.011c2.517-1.05,4.011-3.8,4.261-6.514a18.692,18.692,0,0,0-1.469-7.98q2.9,3.427,5.8,6.851c1.917-.494,2.127-3.066,2.247-5.041s1.534-4.521,3.367-3.772c.776.316,1.241,1.163,2.019,1.472a3.434,3.434,0,0,0,2.543-.369l6.289-2.681" transform="translate(-349.303 -285.936)" fill="none" stroke="#6b80ff" stroke-miterlimit="10" stroke-width="2"/>
      <rect id="Rectangle_9" data-name="Rectangle 9" width="49.42" height="66.188" transform="translate(39.381 70.6)" fill="none" stroke="#b3c0ff" stroke-miterlimit="10" stroke-width="2"/>
    </g>
    <g id="Group_30" data-name="Group 30" transform="translate(792.802 97.839)" opacity="0.503">
      <path id="Path_151" data-name="Path 151" d="M726.23,175.287h11.553a2.75,2.75,0,0,0,2.75-2.749v-26.8a2.75,2.75,0,0,0-2.75-2.749H726.228c-.327-1.412-.706-2.823-1.123-4.194l10.006-5.778a2.751,2.751,0,0,0,1.007-3.757l-13.4-23.21a2.75,2.75,0,0,0-3.757-1.005l-10.02,5.784q-1.49-1.567-3.061-3.059l0-.005,5.784-10.02a2.75,2.75,0,0,0-1.005-3.757l-23.209-13.4a2.751,2.751,0,0,0-3.757,1.007l-5.783,10.015c-1.373-.419-2.773-.8-4.186-1.125h0V78.924a2.749,2.749,0,0,0-2.75-2.749h-26.8a2.75,2.75,0,0,0-2.75,2.749V90.486h0c-1.414.327-2.813.706-4.187,1.125L631.449,81.6a2.751,2.751,0,0,0-3.757-1.007l-23.208,13.4a2.75,2.75,0,0,0-1.007,3.757l5.786,10.021,0,0q-1.57,1.49-3.061,3.061l-10.021-5.786a2.75,2.75,0,0,0-3.757,1.005l-13.4,23.21a2.751,2.751,0,0,0,1.007,3.757l10.008,5.778c-.417,1.371-.8,2.782-1.123,4.194H577.357a2.75,2.75,0,0,0-2.75,2.749v26.8a2.75,2.75,0,0,0,2.75,2.749h11.557c.326,1.414.706,2.813,1.125,4.187l0,.005-10.011,5.779a2.751,2.751,0,0,0-1.007,3.757l13.4,23.208a2.751,2.751,0,0,0,3.757,1.007l10.02-5.784q1.493,1.57,3.062,3.062l0,0-5.784,10.02a2.751,2.751,0,0,0,1.007,3.757l23.208,13.4a2.751,2.751,0,0,0,3.757-1.007l5.781-10.013c1.375.419,2.775.8,4.189,1.125h0V239.35a2.75,2.75,0,0,0,2.75,2.751h26.8a2.749,2.749,0,0,0,2.75-2.751V227.791h0c1.414-.327,2.814-.706,4.188-1.125l5.781,10.013a2.751,2.751,0,0,0,3.757,1.007l23.209-13.4a2.75,2.75,0,0,0,1.005-3.757l-5.784-10.02,0,0q1.572-1.493,3.062-3.062l10.018,5.784a2.75,2.75,0,0,0,3.757-1.007l13.4-23.208a2.751,2.751,0,0,0-1.007-3.757l-10.01-5.779,0-.005C725.522,178.1,725.9,176.7,726.23,175.287Zm-60.943,22.3a39.222,39.222,0,1,1,30.759-30.825A39.226,39.226,0,0,1,665.287,197.585Z" transform="translate(-574.607 -76.175)" fill="#c7e1f9"/>
    </g>
    <g id="Group_31" data-name="Group 31" transform="translate(696.236 136.461)" opacity="0.2">
      <path id="Path_152" data-name="Path 152" d="M602.112,153.661h6.4a1.522,1.522,0,0,0,1.522-1.523V137.293a1.522,1.522,0,0,0-1.522-1.522h-6.4c-.181-.781-.392-1.563-.622-2.324l5.542-3.2a1.524,1.524,0,0,0,.557-2.081l-7.422-12.855a1.523,1.523,0,0,0-2.079-.559l-5.55,3.206q-.826-.869-1.7-1.694l0,0,3.2-5.55a1.524,1.524,0,0,0-.557-2.081l-12.855-7.421a1.524,1.524,0,0,0-2.081.557l-3.2,5.547c-.761-.233-1.535-.443-2.319-.622l0,0v-6.4a1.524,1.524,0,0,0-1.523-1.523H556.661a1.524,1.524,0,0,0-1.523,1.523v6.405h0c-.783.181-1.559.39-2.32.622l-3.2-5.547a1.523,1.523,0,0,0-2.081-.557l-12.855,7.421a1.524,1.524,0,0,0-.557,2.081l3.2,5.552,0,0q-.869.823-1.694,1.694l-5.552-3.206a1.523,1.523,0,0,0-2.079.559l-7.422,12.855a1.524,1.524,0,0,0,.557,2.081l5.543,3.2c-.231.761-.441,1.542-.622,2.324h-6.4a1.522,1.522,0,0,0-1.522,1.522v14.845a1.522,1.522,0,0,0,1.522,1.523h6.4c.181.781.392,1.558.622,2.319l0,0-5.545,3.2a1.521,1.521,0,0,0-.557,2.079L528,174.12a1.521,1.521,0,0,0,2.079.557l5.55-3.2q.826.869,1.7,1.7l0,0-3.2,5.548a1.524,1.524,0,0,0,.557,2.081l12.855,7.422a1.523,1.523,0,0,0,2.081-.557l3.2-5.547c.761.233,1.537.443,2.32.624h0v6.4a1.524,1.524,0,0,0,1.523,1.523H571.5a1.524,1.524,0,0,0,1.523-1.523v-6.4h0c.783-.181,1.558-.392,2.319-.624l3.2,5.547a1.524,1.524,0,0,0,2.081.557l12.855-7.422a1.524,1.524,0,0,0,.557-2.081l-3.2-5.548,0,0q.872-.826,1.7-1.7l5.55,3.2a1.521,1.521,0,0,0,2.079-.557l7.422-12.856a1.522,1.522,0,0,0-.557-2.079l-5.543-3.2v0C601.721,155.219,601.931,154.443,602.112,153.661Zm-33.756,12.35a21.724,21.724,0,1,1,17.037-17.075A21.728,21.728,0,0,1,568.356,166.012Z" transform="translate(-518.131 -98.763)" fill="#c7e1f9"/>
    </g>
    <g id="Group_32" data-name="Group 32" transform="translate(288.73 116.907)" opacity="0.3">
      <path id="Path_153" data-name="Path 153" d="M353.455,135.471h5.613a1.335,1.335,0,0,0,1.335-1.335V121.119a1.335,1.335,0,0,0-1.335-1.335h-5.613c-.159-.686-.342-1.371-.545-2.038l4.861-2.806a1.34,1.34,0,0,0,.489-1.826L351.75,101.84a1.335,1.335,0,0,0-1.824-.489l-4.868,2.809q-.723-.762-1.486-1.486l0,0L346.38,97.8a1.335,1.335,0,0,0-.489-1.824l-11.275-6.509a1.335,1.335,0,0,0-1.824.489l-2.808,4.865q-1-.305-2.035-.545l0,0V88.662a1.335,1.335,0,0,0-1.335-1.335H313.595a1.335,1.335,0,0,0-1.337,1.335v5.617h0c-.687.159-1.368.342-2.035.545l-2.809-4.865a1.334,1.334,0,0,0-1.824-.489l-11.273,6.509a1.334,1.334,0,0,0-.489,1.824l2.811,4.868,0,0c-.51.484-1,.978-1.488,1.488l-4.868-2.811a1.335,1.335,0,0,0-1.824.489l-6.509,11.273a1.336,1.336,0,0,0,.489,1.826l4.861,2.806c-.2.667-.386,1.352-.545,2.038h-5.613a1.334,1.334,0,0,0-1.335,1.335v13.017a1.334,1.334,0,0,0,1.335,1.335h5.613c.159.687.344,1.368.547,2.035v0l-4.863,2.808a1.336,1.336,0,0,0-.489,1.826l6.509,11.273a1.334,1.334,0,0,0,1.824.489l4.868-2.809q.723.762,1.488,1.486v0l-2.809,4.868a1.335,1.335,0,0,0,.489,1.824l11.273,6.509a1.336,1.336,0,0,0,1.824-.489l2.809-4.865c.667.2,1.347.388,2.035.547h0v5.615a1.337,1.337,0,0,0,1.337,1.335h13.017a1.336,1.336,0,0,0,1.335-1.335v-5.615h0c.687-.159,1.366-.344,2.035-.547l2.808,4.865a1.336,1.336,0,0,0,1.824.489l11.275-6.509a1.335,1.335,0,0,0,.489-1.824l-2.811-4.868,0,0q.762-.723,1.486-1.486l4.868,2.809a1.335,1.335,0,0,0,1.824-.489l6.509-11.273a1.34,1.34,0,0,0-.489-1.826l-4.863-2.808,0,0C353.113,136.839,353.3,136.159,353.455,135.471Zm-29.6,10.832a19.052,19.052,0,1,1,14.941-14.973A19.054,19.054,0,0,1,323.852,146.3Z" transform="translate(-279.803 -87.327)" fill="#c7e1f9"/>
    </g>
    <g id="Group_33" data-name="Group 33" transform="translate(479.755 45.656)" opacity="0.3">
      <path id="Path_154" data-name="Path 154" d="M435.837,74.623h3.377a.8.8,0,0,0,.8-.8V65.986a.8.8,0,0,0-.8-.8h-3.377c-.1-.412-.205-.824-.328-1.226l2.926-1.688a.806.806,0,0,0,.294-1.1l-3.917-6.783a.8.8,0,0,0-1.1-.294l-2.929,1.689c-.289-.3-.588-.6-.894-.894h0l1.691-2.929a.806.806,0,0,0-.294-1.1L424.5,46.945a.806.806,0,0,0-1.1.294l-1.689,2.927c-.4-.121-.81-.233-1.224-.328h0V46.46a.8.8,0,0,0-.8-.8h-7.833a.8.8,0,0,0-.8.8v3.379h0c-.414.1-.822.207-1.224.328l-1.689-2.927a.806.806,0,0,0-1.1-.294l-6.785,3.917a.806.806,0,0,0-.294,1.1l1.691,2.929h0q-.459.436-.894.9l-2.929-1.691a.8.8,0,0,0-1.1.294l-3.916,6.783a.8.8,0,0,0,.294,1.1l2.926,1.688c-.123.4-.233.814-.328,1.226h-3.377a.805.805,0,0,0-.805.8v7.833a.8.8,0,0,0,.805.8h3.377c.1.414.207.822.328,1.224v0l-2.926,1.688a.8.8,0,0,0-.294,1.1l3.916,6.783a.806.806,0,0,0,1.1.294l2.927-1.691q.436.459.9.894v0l-1.691,2.927a.808.808,0,0,0,.294,1.1l6.785,3.916a.8.8,0,0,0,1.1-.294l1.689-2.927c.4.123.81.234,1.224.33h0v3.379a.8.8,0,0,0,.8.8h7.833a.8.8,0,0,0,.8-.8V89.969h0c.414-.1.822-.207,1.224-.33l1.689,2.927a.8.8,0,0,0,1.1.294l6.785-3.916a.808.808,0,0,0,.294-1.1l-1.691-2.927v0q.459-.436.9-.894l2.927,1.691a.8.8,0,0,0,1.1-.294l3.917-6.783a.808.808,0,0,0-.294-1.1l-2.926-1.688v0Q435.694,75.244,435.837,74.623Zm-17.812,6.518a11.464,11.464,0,1,1,8.99-9.011A11.465,11.465,0,0,1,418.026,81.141Z" transform="translate(-391.523 -45.656)" fill="#c7e1f9"/>
    </g>
    <g id="Group_34" data-name="Group 34" transform="translate(1024.296 410.992)" style="mix-blend-mode: screen;isolation: isolate">
      <path id="Path_155" data-name="Path 155" d="M762.373,293.559h3.991a.95.95,0,0,0,.951-.949v-9.259a.949.949,0,0,0-.951-.949h-3.991c-.113-.489-.245-.976-.388-1.45l3.457-2a.95.95,0,0,0,.347-1.3l-4.629-8.017a.948.948,0,0,0-1.3-.347l-3.461,2q-.515-.544-1.058-1.058h0l2-3.462a.949.949,0,0,0-.347-1.3l-8.017-4.629a.951.951,0,0,0-1.3.347l-2,3.461c-.475-.145-.959-.275-1.446-.39h0v-3.992a.949.949,0,0,0-.949-.951h-9.257a.951.951,0,0,0-.951.951v3.992h0c-.489.115-.973.245-1.447.39l-2-3.461a.951.951,0,0,0-1.3-.347l-8.017,4.629a.952.952,0,0,0-.347,1.3l2,3.462h0q-.541.515-1.057,1.058l-3.462-2a.949.949,0,0,0-1.3.347l-4.629,8.017a.95.95,0,0,0,.349,1.3l3.456,2c-.144.472-.274.961-.386,1.448h-3.992a.949.949,0,0,0-.951.949v9.259a.95.95,0,0,0,.951.949h3.991c.115.489.245.973.39,1.447v0l-3.457,2a.95.95,0,0,0-.349,1.3l4.629,8.018a.952.952,0,0,0,1.3.347l3.462-2q.516.544,1.057,1.058h0l-2,3.462a.952.952,0,0,0,.347,1.3l8.017,4.629a.95.95,0,0,0,1.3-.349l2-3.459c.475.145.959.277,1.448.39h0v3.993a.951.951,0,0,0,.951.951h9.257a.949.949,0,0,0,.949-.951V311.7h0c.489-.113.971-.244,1.446-.388l2,3.457a.95.95,0,0,0,1.3.349l8.017-4.629a.949.949,0,0,0,.347-1.3l-2-3.462h0q.544-.515,1.058-1.058l3.461,2a.951.951,0,0,0,1.3-.347l4.629-8.018a.95.95,0,0,0-.347-1.3l-3.459-2,0,0C762.128,294.532,762.26,294.048,762.373,293.559Zm-21.052,7.7a13.549,13.549,0,1,1,10.625-10.649A13.551,13.551,0,0,1,741.321,301.262Z" transform="translate(-709.995 -259.321)" fill="#3b62c1"/>
    </g>
    <g id="Group_36" data-name="Group 36" transform="translate(361.926 179.97)">
      <g id="Group_35" data-name="Group 35" transform="translate(53.296)">
        <rect id="Rectangle_10" data-name="Rectangle 10" width="589.983" height="503.479" rx="16.162" fill="#4766ea" stroke="#fff" stroke-miterlimit="10" stroke-width="1"/>
        <path id="Rectangle_11" data-name="Rectangle 11" d="M11.162,0H463.325a11.162,11.162,0,0,1,11.162,11.162v537.8a11.161,11.161,0,0,1-11.161,11.161H11.161A11.161,11.161,0,0,1,0,548.961V11.162A11.162,11.162,0,0,1,11.162,0Z" transform="translate(575.052 14.495) rotate(90)" fill="#1f4199"/>
      </g>
      <path id="Path_156" data-name="Path 156" d="M1019.181,402.307l-447.835-2.792-248.731,2.792s-1.021,31,27.265,35.086c14.541,2.1,121.218,2,221.465,1.412,100.247.592,406.029.687,420.57-1.412C1020.2,433.309,1019.181,402.307,1019.181,402.307Z" transform="translate(-322.611 71.218)" fill="#6d80fd"/>
      <path id="Path_157" data-name="Path 157" d="M658.517,400.616l-167.191-1.043a16.932,16.932,0,0,0,16.88,15.705h133.54A16.933,16.933,0,0,0,658.517,400.616Z" transform="translate(-202.848 71.259)" fill="#4566dd"/>
    </g>
    <g id="Group_46" data-name="Group 46" transform="translate(459.758 225.984)">
      <rect id="Rectangle_12" data-name="Rectangle 12" width="298.543" height="191.085" transform="translate(14.341 165.302)" fill="#5275a0" opacity="0.2" style="mix-blend-mode: multiply;isolation: isolate"/>
      <rect id="Rectangle_13" data-name="Rectangle 13" width="137.655" height="94.534" transform="translate(246.445)" fill="none" stroke="#4766ea" stroke-miterlimit="10" stroke-width="2.606"/>
      <rect id="Rectangle_14" data-name="Rectangle 14" width="137.654" height="121.694" transform="translate(4.736)" fill="none" stroke="#4766ea" stroke-miterlimit="10" stroke-width="2.956"/>
      <rect id="Rectangle_15" data-name="Rectangle 15" width="298.543" height="191.085" transform="translate(0 156.339)" fill="none" stroke="#4766ea" stroke-miterlimit="10" stroke-width="3.105"/>
      <rect id="Rectangle_16" data-name="Rectangle 16" width="187.008" height="93.736" transform="translate(327.665 262.541)" fill="none" stroke="#4766ea" stroke-miterlimit="10" stroke-width="1.721"/>
      <path id="Path_158" data-name="Path 158" d="M612,202.786c19.438-.838,92.7,2,109.869.853" transform="translate(-215.02 -114.556)" fill="none" stroke="#4766ea" stroke-miterlimit="10" stroke-width="2"/>
      <path id="Path_159" data-name="Path 159" d="M612,194.383c19.438-.836,92.7,2,109.869.853" transform="translate(-215.02 -120.52)" fill="none" stroke="#4766ea" stroke-miterlimit="10" stroke-width="2"/>
      <path id="Path_160" data-name="Path 160" d="M612,185.98c19.438-.836,92.7,2,109.869.855" transform="translate(-215.02 -126.485)" fill="none" stroke="#4766ea" stroke-miterlimit="10" stroke-width="2"/>
      <path id="Path_161" data-name="Path 161" d="M612,177.578c19.438-.838,92.7,2,109.869.853" transform="translate(-215.02 -132.45)" fill="none" stroke="#4766ea" stroke-miterlimit="10" stroke-width="2"/>
      <path id="Path_162" data-name="Path 162" d="M612,169.175c19.438-.836,92.7,2,109.869.853" transform="translate(-215.02 -138.414)" fill="none" stroke="#4766ea" stroke-miterlimit="10" stroke-width="2"/>
      <path id="Path_163" data-name="Path 163" d="M471.13,188.417c13.171-.836,62.813,2,74.445.855" transform="translate(-315.016 -124.755)" fill="none" stroke="#4766ea" stroke-miterlimit="10" stroke-width="1.646"/>
      <path id="Path_164" data-name="Path 164" d="M471.13,195.831c13.171-.836,62.813,2,74.445.855" transform="translate(-315.016 -119.492)" fill="none" stroke="#4766ea" stroke-miterlimit="10" stroke-width="1.646"/>
      <path id="Path_165" data-name="Path 165" d="M471.13,203.246c13.171-.838,62.813,2,74.445.853" transform="translate(-315.016 -114.229)" fill="none" stroke="#4766ea" stroke-miterlimit="10" stroke-width="1.646"/>
      <path id="Path_166" data-name="Path 166" d="M471.13,210.66c13.171-.838,62.813,2,74.445.853" transform="translate(-315.016 -108.966)" fill="none" stroke="#4766ea" stroke-miterlimit="10" stroke-width="1.646"/>
      <path id="Path_167" data-name="Path 167" d="M471.13,218.074c13.171-.836,62.813,2,74.445.853" transform="translate(-315.016 -103.703)" fill="none" stroke="#4766ea" stroke-miterlimit="10" stroke-width="1.646"/>
      <path id="Path_168" data-name="Path 168" d="M471.13,180.015c13.171-.836,62.813,2,74.445.853" transform="translate(-315.016 -130.72)" fill="none" stroke="#4766ea" stroke-miterlimit="10" stroke-width="1.646"/>
      <path id="Path_169" data-name="Path 169" d="M471.13,171.612c13.171-.836,62.813,2,74.445.853" transform="translate(-315.016 -136.684)" fill="none" stroke="#4766ea" stroke-miterlimit="10" stroke-width="1.646"/>
      <path id="Path_170" data-name="Path 170" d="M471.13,163.209c13.171-.836,62.813,2,74.445.855" transform="translate(-315.016 -142.649)" fill="none" stroke="#4766ea" stroke-miterlimit="10" stroke-width="1.646"/>
      <path id="Path_171" data-name="Path 171" d="M471.13,154.807c13.171-.838,62.813,2,74.445.853" transform="translate(-315.016 -148.614)" fill="none" stroke="#4766ea" stroke-miterlimit="10" stroke-width="1.646"/>
      <path id="Path_172" data-name="Path 172" d="M614.886,167.286a16.926,16.926,0,0,1,10.157-15.095,7.064,7.064,0,0,1,4.229-.619c6.155,1.407,4.432,13.08,10.563,14.587l5.709-8.168q3.906,3.424,7.811,6.85c.8-2.813,3.1-6.359,5.714-5.046a15.5,15.5,0,0,1,1.949,1.611c1.438,1.048,3.392.922,5.162.716a139.1,139.1,0,0,0,29.892-6.887" transform="translate(-212.97 -150.882)" fill="none" stroke="#4766ea" stroke-miterlimit="10" stroke-width="2"/>
      <g id="Group_37" data-name="Group 37" transform="translate(321.047 159.482)">
        <circle id="Ellipse_3" data-name="Ellipse 3" cx="16.382" cy="16.382" r="16.382" transform="translate(0 31.453) rotate(-73.737)" fill="none" stroke="#4766ea" stroke-miterlimit="10" stroke-width="0.961"/>
        <line id="Line_15" data-name="Line 15" x2="139.619" transform="translate(48.436 9.55)" fill="none" stroke="#4766ea" stroke-linecap="round" stroke-miterlimit="10" stroke-width="3.105"/>
        <line id="Line_16" data-name="Line 16" x2="139.619" transform="translate(48.436 18.816)" fill="none" stroke="#4766ea" stroke-linecap="round" stroke-miterlimit="10" stroke-width="3.105"/>
        <line id="Line_17" data-name="Line 17" x2="116.184" transform="translate(48.436 28.951)" fill="none" stroke="#4766ea" stroke-linecap="round" stroke-miterlimit="10" stroke-width="3.105"/>
        <path id="Path_173" data-name="Path 173" d="M569.363,259.38l14.351,9.9,23.258-24.248" transform="translate(-566.332 -243.94)" fill="none" stroke="#00b0cd" stroke-linecap="round" stroke-linejoin="round" stroke-width="2.159"/>
      </g>
      <g id="Group_38" data-name="Group 38" transform="translate(318.673 208.704)">
        <circle id="Ellipse_4" data-name="Ellipse 4" cx="16.382" cy="16.382" r="16.382" transform="translate(0 27.378) rotate(-56.68)" fill="none" stroke="#4766ea" stroke-miterlimit="10" stroke-width="0.961"/>
        <line id="Line_18" data-name="Line 18" x2="139.619" transform="translate(50.81 11.924)" fill="none" stroke="#4766ea" stroke-linecap="round" stroke-miterlimit="10" stroke-width="3.105"/>
        <line id="Line_19" data-name="Line 19" x2="139.619" transform="translate(50.81 21.189)" fill="none" stroke="#4766ea" stroke-linecap="round" stroke-miterlimit="10" stroke-width="3.105"/>
        <line id="Line_20" data-name="Line 20" x2="116.184" transform="translate(50.81 31.324)" fill="none" stroke="#4766ea" stroke-linecap="round" stroke-miterlimit="10" stroke-width="3.105"/>
        <path id="Path_174" data-name="Path 174" d="M569.363,289.555l14.351,9.9L606.973,275.2" transform="translate(-563.958 -271.742)" fill="none" stroke="#00b0cd" stroke-linecap="round" stroke-linejoin="round" stroke-width="2.159"/>
      </g>
      <g id="Group_40" data-name="Group 40" transform="translate(301.263 107.127)">
        <rect id="Rectangle_17" data-name="Rectangle 17" width="199.636" height="38.692" rx="10.454" fill="#082e38"/>
        <path id="Path_175" data-name="Path 175" d="M577.26,228.095a26.277,26.277,0,0,1,12.468-6.585,2.334,2.334,0,0,1,1.9.162c.85.645.5,1.975.072,2.951q-1.272,2.9-2.546,5.8c-.843,1.92-1.4,4.721.487,5.637a3.444,3.444,0,0,0,3.073-.4c2.6-1.433,4.362-3.972,6.328-6.2s4.512-4.323,7.482-4.317a4.117,4.117,0,0,1,2.568.793c2.623,2.091,1,7.467,4.085,8.78,1.623.689,3.414-.359,4.863-1.363l5.314-3.688c1.734-1.2,3.762-2.464,5.808-1.953,2.66.663,3.736,3.851,5.885,5.555,2.537,2.014,6.159,1.688,9.353,1.142a133.432,133.432,0,0,0,24.277-6.556" transform="translate(-540.943 -208.365)" fill="none" stroke="#6b80ff" stroke-miterlimit="10" stroke-width="1.941"/>
        <g id="Group_39" data-name="Group 39" transform="translate(166.931 9.8)">
          <path id="Path_176" data-name="Path 176" d="M660.244,219.5a6.807,6.807,0,0,0-3.873,1.749,7.331,7.331,0,0,0-2.657,4.268,5.933,5.933,0,0,0,2.643,5.74,7.036,7.036,0,0,0,6.407.508,6.557,6.557,0,0,0,2.183-1.424,5.778,5.778,0,0,0-1.052-9" transform="translate(-653.649 -219.504)" fill="none" stroke="#fff" stroke-miterlimit="10" stroke-width="1.941"/>
          <path id="Path_177" data-name="Path 177" d="M659.768,226.812a53.192,53.192,0,0,1,3.97,5.67" transform="translate(-649.305 -214.316)" fill="none" stroke="#fff" stroke-miterlimit="10" stroke-width="1.941"/>
        </g>
      </g>
      <line id="Line_21" data-name="Line 21" x2="255.079" transform="translate(20.037 225.605)" fill="none" stroke="#4d70ff" stroke-linecap="round" stroke-linejoin="round" stroke-width="1.601"/>
      <line id="Line_22" data-name="Line 22" x2="204.016" transform="translate(20.037 239.072)" fill="none" stroke="#00fcff" stroke-linecap="round" stroke-linejoin="round" stroke-width="1.802"/>
      <line id="Line_23" data-name="Line 23" x2="35.183" transform="translate(239.933 239.072)" fill="none" stroke="#00fcff" stroke-linecap="round" stroke-linejoin="round" stroke-width="1.777"/>
      <line id="Line_24" data-name="Line 24" x1="83.414" transform="translate(191.702 253.827)" fill="none" stroke="#00fcff" stroke-linecap="round" stroke-linejoin="round" stroke-width="1.777"/>
      <line id="Line_25" data-name="Line 25" x1="20.006" transform="translate(158.057 253.827)" fill="none" stroke="#00fcff" stroke-linecap="round" stroke-linejoin="round" stroke-width="1.802"/>
      <line id="Line_26" data-name="Line 26" x1="20.006" transform="translate(122.161 253.827)" fill="none" stroke="#00fcff" stroke-linecap="round" stroke-linejoin="round" stroke-width="1.802"/>
      <line id="Line_27" data-name="Line 27" x1="20.006" transform="translate(86.263 253.827)" fill="none" stroke="#00fcff" stroke-linecap="round" stroke-linejoin="round" stroke-width="1.802"/>
      <line id="Line_28" data-name="Line 28" x1="20.006" transform="translate(50.366 253.827)" fill="none" stroke="#00fcff" stroke-linecap="round" stroke-linejoin="round" stroke-width="1.802"/>
      <line id="Line_29" data-name="Line 29" x1="231.14" transform="translate(43.976 271.767)" fill="none" stroke="#4d70ff" stroke-linecap="round" stroke-linejoin="round" stroke-width="1.601"/>
      <line id="Line_30" data-name="Line 30" x1="23.264" transform="translate(247.437 169.512)" fill="none" stroke="#00fcff" stroke-linecap="round" stroke-linejoin="round" stroke-width="3.236"/>
      <line id="Line_31" data-name="Line 31" x1="23.264" transform="translate(247.437 187.452)" fill="none" stroke="#00fcff" stroke-linecap="round" stroke-linejoin="round" stroke-width="3.236"/>
      <line id="Line_32" data-name="Line 32" x1="23.264" transform="translate(247.437 205.392)" fill="none" stroke="#00fcff" stroke-linecap="round" stroke-linejoin="round" stroke-width="3.236"/>
      <line id="Line_33" data-name="Line 33" x2="86.798" transform="translate(49.628 289.708)" fill="none" stroke="#4d70ff" stroke-linecap="round" stroke-linejoin="round" stroke-width="1.601"/>
      <line id="Line_34" data-name="Line 34" x2="115.138" transform="translate(49.628 308.088)" fill="none" stroke="#4d70ff" stroke-linecap="round" stroke-linejoin="round" stroke-width="1.601"/>
      <line id="Line_35" data-name="Line 35" x2="156.143" transform="translate(49.628 326.468)" fill="none" stroke="#4d70ff" stroke-linecap="round" stroke-linejoin="round" stroke-width="1.601"/>
      <line id="Line_36" data-name="Line 36" x2="129.541" transform="translate(145.575 289.708)" fill="none" stroke="#00fcff" stroke-linecap="round" stroke-linejoin="round" stroke-width="1.777"/>
      <line id="Line_37" data-name="Line 37" x2="102.096" transform="translate(173.02 308.088)" fill="none" stroke="#00fcff" stroke-linecap="round" stroke-linejoin="round" stroke-width="1.777"/>
      <line id="Line_38" data-name="Line 38" x2="59.714" transform="translate(215.402 326.468)" fill="none" stroke="#00fcff" stroke-linecap="round" stroke-linejoin="round" stroke-width="1.777"/>
      <g id="Group_45" data-name="Group 45" transform="translate(1.291 372.896)">
        <path id="Path_178" data-name="Path 178" d="M446.835,386.027l-61.013.126a5.229,5.229,0,0,1-5.239-5.217h0A5.23,5.23,0,0,1,385.8,375.7l61.009-.125a5.228,5.228,0,0,1,5.241,5.217h0A5.225,5.225,0,0,1,446.835,386.027Z" transform="translate(-380.583 -364.686)" fill="#4766ea"/>
        <g id="Group_41" data-name="Group 41" transform="translate(196.026)">
          <path id="Path_179" data-name="Path 179" d="M589.487,376.523l-92.652.191a1.6,1.6,0,0,1-1.6-1.6h0a1.6,1.6,0,0,1,1.6-1.606l92.652-.19a1.6,1.6,0,0,1,1.6,1.6h0A1.6,1.6,0,0,1,589.487,376.523Z" transform="translate(-495.226 -366.286)" fill="#4766ea"/>
          <path id="Path_180" data-name="Path 180" d="M589.484,372.409l-92.652.191a1.6,1.6,0,0,1-1.6-1.6h0a1.6,1.6,0,0,1,1.6-1.6l92.652-.191a1.6,1.6,0,0,1,1.6,1.6h0A1.6,1.6,0,0,1,589.484,372.409Z" transform="translate(-495.228 -369.206)" fill="#4766ea"/>
          <path id="Path_181" data-name="Path 181" d="M589.491,380.636l-92.65.191a1.6,1.6,0,0,1-1.606-1.6h0a1.6,1.6,0,0,1,1.6-1.606l92.65-.191a1.6,1.6,0,0,1,1.605,1.6h0A1.6,1.6,0,0,1,589.491,380.636Z" transform="translate(-495.223 -363.366)" fill="#4766ea"/>
          <path id="Path_182" data-name="Path 182" d="M589.5,384.75l-92.652.191a1.6,1.6,0,0,1-1.6-1.6h0a1.6,1.6,0,0,1,1.6-1.606l92.65-.191a1.6,1.6,0,0,1,1.6,1.6h0A1.6,1.6,0,0,1,589.5,384.75Z" transform="translate(-495.219 -360.446)" fill="#4766ea"/>
          <path id="Path_183" data-name="Path 183" d="M567.595,388.87l-70.745.147a1.6,1.6,0,0,1-1.606-1.6h0a1.6,1.6,0,0,1,1.6-1.6l70.745-.147a1.6,1.6,0,0,1,1.606,1.6h0A1.6,1.6,0,0,1,567.595,388.87Z" transform="translate(-495.217 -357.521)" fill="#4766ea"/>
        </g>
        <g id="Group_42" data-name="Group 42" transform="translate(303.092 0.05)">
          <path id="Path_184" data-name="Path 184" d="M652.1,376.551l-92.65.192a1.6,1.6,0,0,1-1.605-1.6h0a1.6,1.6,0,0,1,1.6-1.6l92.65-.191a1.6,1.6,0,0,1,1.606,1.6h0A1.6,1.6,0,0,1,652.1,376.551Z" transform="translate(-557.843 -366.315)" fill="#4766ea"/>
          <path id="Path_185" data-name="Path 185" d="M652.1,372.438l-92.65.192a1.6,1.6,0,0,1-1.606-1.6h0a1.6,1.6,0,0,1,1.6-1.6l92.65-.191a1.6,1.6,0,0,1,1.606,1.6h0A1.6,1.6,0,0,1,652.1,372.438Z" transform="translate(-557.845 -369.235)" fill="#4766ea"/>
          <path id="Path_186" data-name="Path 186" d="M652.109,380.664l-92.65.191a1.6,1.6,0,0,1-1.606-1.6h0a1.6,1.6,0,0,1,1.6-1.606l92.65-.191a1.6,1.6,0,0,1,1.6,1.6h0A1.6,1.6,0,0,1,652.109,380.664Z" transform="translate(-557.839 -363.395)" fill="#4766ea"/>
          <path id="Path_187" data-name="Path 187" d="M652.113,384.779l-92.65.191a1.6,1.6,0,0,1-1.606-1.6h0a1.6,1.6,0,0,1,1.6-1.606l92.65-.191a1.6,1.6,0,0,1,1.606,1.6h0A1.6,1.6,0,0,1,652.113,384.779Z" transform="translate(-557.836 -360.475)" fill="#4766ea"/>
          <path id="Path_188" data-name="Path 188" d="M630.213,388.9l-70.745.147a1.6,1.6,0,0,1-1.606-1.6h0a1.6,1.6,0,0,1,1.6-1.6l70.747-.147a1.6,1.6,0,0,1,1.6,1.6h0A1.6,1.6,0,0,1,630.213,388.9Z" transform="translate(-557.833 -357.55)" fill="#4766ea"/>
        </g>
        <g id="Group_43" data-name="Group 43" transform="translate(410.16 0.05)">
          <path id="Path_189" data-name="Path 189" d="M714.722,376.551l-92.652.192a1.6,1.6,0,0,1-1.6-1.6h0a1.6,1.6,0,0,1,1.6-1.6l92.652-.191a1.6,1.6,0,0,1,1.6,1.6h0A1.6,1.6,0,0,1,714.722,376.551Z" transform="translate(-620.461 -366.315)" fill="#4766ea"/>
          <path id="Path_190" data-name="Path 190" d="M714.719,372.438l-92.652.192a1.6,1.6,0,0,1-1.6-1.6h0a1.6,1.6,0,0,1,1.6-1.6l92.65-.191a1.6,1.6,0,0,1,1.6,1.6h0A1.6,1.6,0,0,1,714.719,372.438Z" transform="translate(-620.463 -369.235)" fill="#4766ea"/>
          <path id="Path_191" data-name="Path 191" d="M714.725,380.664l-92.65.191a1.6,1.6,0,0,1-1.6-1.6h0a1.6,1.6,0,0,1,1.6-1.606l92.65-.191a1.6,1.6,0,0,1,1.606,1.6h0A1.6,1.6,0,0,1,714.725,380.664Z" transform="translate(-620.457 -363.395)" fill="#4766ea"/>
          <path id="Path_192" data-name="Path 192" d="M714.731,384.779l-92.652.191a1.6,1.6,0,0,1-1.6-1.6h0a1.6,1.6,0,0,1,1.6-1.606l92.65-.191a1.6,1.6,0,0,1,1.6,1.6h0A1.6,1.6,0,0,1,714.731,384.779Z" transform="translate(-620.454 -360.475)" fill="#4766ea"/>
          <path id="Path_193" data-name="Path 193" d="M692.829,388.9l-70.745.147a1.6,1.6,0,0,1-1.6-1.6h0a1.6,1.6,0,0,1,1.6-1.6l70.745-.147a1.6,1.6,0,0,1,1.606,1.6h0A1.6,1.6,0,0,1,692.829,388.9Z" transform="translate(-620.451 -357.55)" fill="#4766ea"/>
        </g>
        <g id="Group_44" data-name="Group 44" transform="translate(7.057 26.079)">
          <path id="Path_194" data-name="Path 194" d="M415.73,387.661l-29.416.06a1.6,1.6,0,0,1-1.6-1.6h0a1.6,1.6,0,0,1,1.6-1.606l29.415-.06a1.6,1.6,0,0,1,1.6,1.6v0A1.6,1.6,0,0,1,415.73,387.661Z" transform="translate(-384.71 -384.458)" fill="#4766ea"/>
          <path id="Path_195" data-name="Path 195" d="M442.012,387.661l-29.416.06a1.6,1.6,0,0,1-1.6-1.6h0a1.6,1.6,0,0,1,1.6-1.606l29.415-.06a1.6,1.6,0,0,1,1.606,1.6h0A1.6,1.6,0,0,1,442.012,387.661Z" transform="translate(-366.054 -384.458)" fill="#4766ea"/>
          <path id="Path_196" data-name="Path 196" d="M468.294,387.661l-29.416.06a1.6,1.6,0,0,1-1.6-1.6v0a1.6,1.6,0,0,1,1.6-1.6l29.415-.06a1.6,1.6,0,0,1,1.6,1.6h0A1.6,1.6,0,0,1,468.294,387.661Z" transform="translate(-347.397 -384.458)" fill="#4766ea"/>
          <path id="Path_197" data-name="Path 197" d="M494.576,387.661l-29.415.06a1.6,1.6,0,0,1-1.606-1.6h0a1.6,1.6,0,0,1,1.6-1.606l29.415-.06a1.6,1.6,0,0,1,1.606,1.6h0A1.6,1.6,0,0,1,494.576,387.661Z" transform="translate(-328.741 -384.458)" fill="#4766ea"/>
        </g>
      </g>
      <circle id="Ellipse_5" data-name="Ellipse 5" cx="24.168" cy="24.168" r="24.168" transform="translate(391.681 329.028) rotate(-81.186)" fill="none" stroke="#4766ea" stroke-miterlimit="10" stroke-width="1.943"/>
    </g>
    <g id="Group_48" data-name="Group 48" transform="translate(725.507 571.324)">
      <g id="Group_47" data-name="Group 47" transform="translate(10.227 42.268)">
        <path id="Path_198" data-name="Path 198" d="M545.943,415.635h21.6l4.712-37.825H541.231Z" transform="translate(-541.231 -377.81)" fill="#fdfaf1"/>
        <path id="Path_199" data-name="Path 199" d="M553.573,392.6a9.21,9.21,0,1,0,9.211-9.209A9.21,9.21,0,0,0,553.573,392.6Z" transform="translate(-532.47 -373.85)" fill="none" stroke="#fdfaf1" stroke-miterlimit="10" stroke-width="1.378"/>
        <path id="Path_200" data-name="Path 200" d="M568.143,382.69l-3.452,28.568h-18l-3.452-27.941a8.31,8.31,0,0,1,7.953-2.825C556.319,381.435,559.459,387.086,568.143,382.69Z" transform="translate(-539.806 -376.013)" fill="#de5f03"/>
      </g>
      <path id="Path_201" data-name="Path 201" d="M561.821,392.856c1.462-.315,1.765-2.471.867-3.666s-2.435-1.671-3.852-2.146c-2.927-.983-5.892-2.363-7.7-4.863s-2.023-6.379.267-8.448c3.7-3.341,10.466.08,14.217-3.2,2.2-1.927,2.269-5.429,1.169-8.141-2.235-5.5-8.271-8.742-14.19-9.223s-11.777,1.322-17.346,3.391" transform="translate(-535.25 -353.09)" fill="none" stroke="#9cb2fb" stroke-miterlimit="10" stroke-width="1.445"/>
    </g>
    <g id="Group_50" data-name="Group 50" transform="translate(769.762 449.343)">
      <path id="Path_202" data-name="Path 202" d="M628.254,351.081l-23.529,29.032s-16.994-31.485-19.359-44.749c-1.91-10.705-13.405-3.779-11.8,3.035s10.444,75.307,27.113,74.651c17.4-.687,46.621-38.49,46.621-38.49Z" transform="translate(-552.417 -247.626)" fill="#e06001"/>
      <path id="Path_203" data-name="Path 203" d="M652.39,387.016s-78.368-20.446-89.771,15.527,43.2,64,148.245,61.032c4.057-8.069.932-28.031.932-28.031L698.92,399.421Z" transform="translate(-561.132 -211.135)" fill="#12203d"/>
      <path id="Path_204" data-name="Path 204" d="M694.656,387.016s78.368-20.446,89.771,15.527-43.2,64-148.244,61.032c-4.056-8.069-.93-28.031-.93-28.031l12.873-36.122Z" transform="translate(-509.334 -211.135)" fill="#12203d"/>
      <path id="Path_205" data-name="Path 205" d="M649.664,412.995s29.594,9.131,32.038,11.68c2.749-5.1,7.636-12.106,12.827-7.009,6.109,6.053,11.109,8.919,17.618,10.512s22.471,5.865,20.332,8.095S675.291,441,648.66,441.182C650.175,436.081,652.553,421.1,649.664,412.995Z" transform="translate(-499 -188.586)" fill="#fc5b08"/>
      <path id="Path_206" data-name="Path 206" d="M601.291,398.4s46.294,9.768,82,24.954" transform="translate(-532.625 -198.945)" fill="none" stroke="#00b0cd" stroke-miterlimit="10" stroke-width="1.459"/>
      <path id="Path_207" data-name="Path 207" d="M724.573,391.869s-50.053,9.307-79.084,33.491" transform="translate(-501.251 -203.582)" fill="none" stroke="#00b0cd" stroke-miterlimit="10" stroke-width="1.459"/>
      <path id="Path_208" data-name="Path 208" d="M727.493,434.569c-.691-2.524-11.8-5.738-21-7.988-6.569-1.609-11.422-4.507-17.309-10.339a5.729,5.729,0,0,0-4.988-1.9c-2.78.445-5.642,3.264-8.513,8.385-1.313-.824-5.184-2.642-17.95-6.91a.667.667,0,0,0-.655.142.73.73,0,0,0-.219.66c1.163,6.626,2.358,16.04,1.457,23.269a.728.728,0,0,0,.169.566.664.664,0,0,0,.5.233H659c16.916-.455,65.741-2.313,68.145-4.822A1.316,1.316,0,0,0,727.493,434.569Z" transform="translate(-493.189 -187.675)" fill="#ffa629"/>
      <path id="Path_209" data-name="Path 209" d="M704.53,360.029S721.1,408.256,687.6,417.7c-28.763,8.11-26.633-51.579-26.633-51.579l35.721-23.894Z" transform="translate(-490.287 -238.82)" fill="#fc5b08"/>
      <path id="Path_210" data-name="Path 210" d="M677.844,319.472c11.3-.414,34.561,4.5,38,6.222S738.918,343.369,748,363.5l-20.323,10.669,2.946,38.3-113.418-2.209,4.418-35.107L601.1,364.86s21.52-31.381,30.6-36.045S657.714,320.209,677.844,319.472Z" transform="translate(-532.758 -254.991)" fill="#fdfaf1"/>
      <g id="Group_49" data-name="Group 49" transform="translate(77.158 114.97)">
        <path id="Rectangle_18" data-name="Rectangle 18" d="M2.4,0H124.079a2.4,2.4,0,0,1,2.4,2.4V85.1a0,0,0,0,1,0,0H0a0,0,0,0,1,0,0V2.4A2.4,2.4,0,0,1,2.4,0Z" fill="#dfeaf6"/>
        <rect id="Rectangle_19" data-name="Rectangle 19" width="126.475" height="3.958" transform="translate(0 85.096)" fill="#cad9e8"/>
        <path id="Path_211" data-name="Path 211" d="M660.369,378.9a12.1,12.1,0,1,1-12.1-12.1A12.1,12.1,0,0,1,660.369,378.9Z" transform="translate(-585.029 -336.35)" fill="#cad9e8"/>
      </g>
      <path id="Path_212" data-name="Path 212" d="M635.733,341.169a14.4,14.4,0,0,0,10.875-11.015c-5.27.009-10.1-3.693-12.391-8.44s-2.337-10.331-1.168-15.469,3.471-9.941,5.755-14.691c7.778,1.611,15.561,5.26,20.558,11.432s4.164,14.739,7.737,22.043a124.712,124.712,0,0,0,5.755,11.29,13.494,13.494,0,0,0,8.088,6.055c-6.52,5.3-14.411,6.043-22.8,5.726S641.835,346.943,635.733,341.169Z" transform="translate(-510.618 -274.791)" fill="#e06004"/>
      <path id="Path_213" data-name="Path 213" d="M649.459,304.436c.593,2.655,2.642,4.459,4.577,4.027s3.025-2.934,2.433-5.589-2.642-4.458-4.577-4.027S648.867,301.781,649.459,304.436Z" transform="translate(-498.547 -269.66)" fill="#e06004"/>
      <path id="Path_214" data-name="Path 214" d="M635.734,295.8c3.406,8.855,10.639,15.657,18.167,21.433a49.8,49.8,0,0,1,6.373,5.386,13.76,13.76,0,0,1,3.794,7.3c1.681-5.059,7.116-7.8,9.756-12.429,3.454-6.056,4.324-28.384-22.89-30.844a19.246,19.246,0,0,0-9.847,2.3A12.955,12.955,0,0,0,635.734,295.8Z" transform="translate(-508.176 -278.306)" fill="#12203d"/>
      <path id="Path_215" data-name="Path 215" d="M636.237,291.586c-.775,4.423,1.276,8.871,3.883,12.526a23.019,23.019,0,0,0,3.668,4.157,16.311,16.311,0,0,0,13.547,3.575" transform="translate(-507.936 -274.769)" fill="none" stroke="#12203d" stroke-miterlimit="10" stroke-width="0.791"/>
      <path id="Path_216" data-name="Path 216" d="M671.567,291.866a9.777,9.777,0,1,1-9.777-9.777A9.777,9.777,0,0,1,671.567,291.866Z" transform="translate(-496.62 -281.51)" fill="#12203d"/>
      <path id="Path_217" data-name="Path 217" d="M677.7,291.638a7.528,7.528,0,1,1-7.527-7.529A7.529,7.529,0,0,1,677.7,291.638Z" transform="translate(-489.071 -280.076)" fill="#12203d"/>
      <path id="Path_218" data-name="Path 218" d="M677.05,296.91a5.276,5.276,0,1,1-5.277-5.277A5.276,5.276,0,0,1,677.05,296.91Z" transform="translate(-486.337 -274.735)" fill="#12203d"/>
      <path id="Path_219" data-name="Path 219" d="M675.584,301.42a4.24,4.24,0,1,1-4.24-4.239A4.24,4.24,0,0,1,675.584,301.42Z" transform="translate(-485.907 -270.797)" fill="#12203d"/>
      <path id="Path_220" data-name="Path 220" d="M670.225,323.19a4.118,4.118,0,0,0,1.532-4.475,12.969,12.969,0,0,0-2.4-4.422,10.568,10.568,0,0,1-2.185-4.511,7.708,7.708,0,0,1,.149-2.625,12.956,12.956,0,0,1,2.544-5.413,6.484,6.484,0,0,1,6.785,1.883c1.794,1.956,2.493,4.167,2.483,7.453C679.122,315.8,673.053,322.2,670.225,323.19Z" transform="translate(-485.896 -267.771)" fill="#12203d"/>
      <path id="Path_221" data-name="Path 221" d="M653.874,296.022" transform="translate(-495.299 -271.62)" fill="none" stroke="#12203d" stroke-miterlimit="10" stroke-width="1.054"/>
      <path id="Path_222" data-name="Path 222" d="M652.624,294.847a9.607,9.607,0,0,1,2.283-10.6,9.96,9.96,0,0,1,10.781-1.573,10.339,10.339,0,0,1,5.694,9.346" transform="translate(-496.7 -281.75)" fill="none" stroke="#12203d" stroke-miterlimit="10" stroke-width="0.791"/>
      <path id="Path_223" data-name="Path 223" d="M657.106,295.79a6.267,6.267,0,0,0,9.881-6.215" transform="translate(-493.005 -276.196)" fill="none" stroke="#12203d" stroke-miterlimit="10" stroke-width="0.791"/>
      <path id="Path_224" data-name="Path 224" d="M652.916,289.749a9.309,9.309,0,0,1-2.765-3.476" transform="translate(-497.942 -278.54)" fill="none" stroke="#12203d" stroke-miterlimit="10" stroke-width="0.791"/>
      <path id="Path_225" data-name="Path 225" d="M651.958,289.434a4.213,4.213,0,0,1-.564-3.449" transform="translate(-497.165 -278.744)" fill="none" stroke="#12203d" stroke-miterlimit="10" stroke-width="0.791"/>
      <path id="Path_226" data-name="Path 226" d="M657.457,293.564a9.825,9.825,0,0,0,2.04,2.274" transform="translate(-492.756 -273.365)" fill="none" stroke="#12203d" stroke-miterlimit="10" stroke-width="0.791"/>
      <path id="Path_227" data-name="Path 227" d="M663.741,286.358a6.673,6.673,0,0,1,5.2-2.84,9.28,9.28,0,0,1,5.761,1.8,5.193,5.193,0,0,1,1.5,1.491,5.772,5.772,0,0,1,.639,1.84,9.287,9.287,0,0,1,.132,3.986,5.951,5.951,0,0,1-3.088,3.931" transform="translate(-488.295 -280.504)" fill="none" stroke="#12203d" stroke-miterlimit="10" stroke-width="0.791"/>
      <path id="Path_228" data-name="Path 228" d="M663.153,289.916a7,7,0,0,0,2.72,4.676,4.466,4.466,0,0,0,5.186.014" transform="translate(-488.712 -275.954)" fill="none" stroke="#12203d" stroke-miterlimit="10" stroke-width="0.791"/>
      <path id="Path_229" data-name="Path 229" d="M670,291.429a5.791,5.791,0,0,1,4.883,2.529,5.405,5.405,0,0,1,.248,5.458,5.064,5.064,0,0,1-4.779,2.565" transform="translate(-483.85 -274.88)" fill="none" stroke="#12203d" stroke-miterlimit="10" stroke-width="0.791"/>
      <path id="Path_230" data-name="Path 230" d="M666.9,293.2a7.849,7.849,0,0,0-.207,4.83,3.657,3.657,0,0,0,3.726,2.573" transform="translate(-486.412 -273.624)" fill="none" stroke="#12203d" stroke-miterlimit="10" stroke-width="0.527"/>
      <path id="Path_231" data-name="Path 231" d="M668.989,297.631a3.058,3.058,0,0,1-2.278.014" transform="translate(-486.186 -270.478)" fill="none" stroke="#12203d" stroke-miterlimit="10" stroke-width="0.527"/>
      <path id="Path_232" data-name="Path 232" d="M671.478,297.737a3.34,3.34,0,0,1,2.413,3.651,3.755,3.755,0,0,1-3.271,3.045" transform="translate(-483.412 -270.402)" fill="none" stroke="#12203d" stroke-miterlimit="10" stroke-width="0.527"/>
      <path id="Path_233" data-name="Path 233" d="M670.995,301.491a2.234,2.234,0,0,0,2.036.371" transform="translate(-483.145 -267.738)" fill="none" stroke="#12203d" stroke-miterlimit="10" stroke-width="0.527"/>
      <path id="Path_234" data-name="Path 234" d="M669.841,302.254a8.48,8.48,0,0,0-2.178,10.591c.81,1.424,2.026,2.572,2.963,3.914a5.423,5.423,0,0,1,1.1,4.61" transform="translate(-486.22 -267.196)" fill="none" stroke="#12203d" stroke-miterlimit="10" stroke-width="0.736"/>
      <path id="Path_235" data-name="Path 235" d="M633.913,323.726s7.1-3.587,9.11-6.306l11.935,7.487,15.491-9.1a25.413,25.413,0,0,0,10.849,9.043l-18.786,15.572-7.735-8.238-7.094,8.553Z" transform="translate(-509.468 -257.572)" fill="#12203d"/>
      <circle id="Ellipse_6" data-name="Ellipse 6" cx="1.737" cy="1.737" r="1.737" transform="translate(143.334 82.089)" fill="#cad9e8"/>
      <circle id="Ellipse_7" data-name="Ellipse 7" cx="1.737" cy="1.737" r="1.737" transform="translate(143.334 88.991)" fill="#cad9e8"/>
      <path id="Path_236" data-name="Path 236" d="M643.657,328.972q.244,6.743,1.079,13.45a4.8,4.8,0,0,0,.956,2.748,3.467,3.467,0,0,0,3.934.424" transform="translate(-502.551 -248.23)" fill="none" stroke="#cad9e8" stroke-miterlimit="10" stroke-width="1.054"/>
      <path id="Path_237" data-name="Path 237" d="M648,327.937q.446,5.219.894,10.44" transform="translate(-499.466 -248.965)" fill="none" stroke="#cad9e8" stroke-miterlimit="10" stroke-width="1.054"/>
      <path id="Path_238" data-name="Path 238" d="M590.033,347.55l.545-7.322c.222-2.979.422-6.1-.783-8.833s-4.312-4.88-7.152-3.957c-2.319-4.4-5.595-9.178-7.913-13.583a4.288,4.288,0,0,0-1.537-1.9,1.484,1.484,0,0,0-2.1.583,2.164,2.164,0,0,0,.207,1.431q2.424,6.184,4.847,12.371a3.042,3.042,0,0,1,.313,1.628c-.3,1.638-2.585,1.638-4.187,2.1-3.3.942-4.5,4.9-5.179,8.267a5.867,5.867,0,0,0-.14,2.486,5.4,5.4,0,0,0,.975,1.859,32.458,32.458,0,0,0,14.648,11.256,7.325,7.325,0,0,0,4.755.551C588.883,353.985,590.747,349.012,590.033,347.55Z" transform="translate(-557.06 -260.455)" fill="#e06001"/>
      <path id="Path_239" data-name="Path 239" d="M577.78,321.388a14.718,14.718,0,0,1-5.791,2.187,2.27,2.27,0,0,0,1.053,2.1,4.662,4.662,0,0,0,3.934.768,13.063,13.063,0,0,1,2.722-.812c.465-.019,1.058.251.988.71" transform="translate(-553.445 -253.613)" fill="none" stroke="#af4700" stroke-miterlimit="10" stroke-width="1"/>
      <path id="Path_240" data-name="Path 240" d="M577.088,324.755a10.19,10.19,0,0,0-1.411,4.755,4.388,4.388,0,0,0,.357,2.161,2.073,2.073,0,0,0,1.729,1.2" transform="translate(-550.812 -251.223)" fill="none" stroke="#af4700" stroke-miterlimit="10" stroke-width="1"/>
      <path id="Path_241" data-name="Path 241" d="M569.978,333.16a15.377,15.377,0,0,0,2.122.4,1.868,1.868,0,0,0,1.689-1.8,4.524,4.524,0,0,0,1.961.033,1.553,1.553,0,0,0,1.205-1.39c-.007-.313-.13-.667.067-.911a.885.885,0,0,1,.289-.2q1.044-.528,2.084-1.06" transform="translate(-554.853 -248.759)" fill="none" stroke="#af4700" stroke-miterlimit="10" stroke-width="1"/>
      <path id="Path_242" data-name="Path 242" d="M568.864,326.432a37.834,37.834,0,0,1,5.718,6.1" transform="translate(-555.644 -250.033)" fill="none" stroke="#af4700" stroke-miterlimit="10" stroke-width="1"/>
      <path id="Path_243" data-name="Path 243" d="M570.049,323.258q3.65,4.511,7.3,9.021" transform="translate(-554.802 -252.286)" fill="none" stroke="#af4700" stroke-miterlimit="10" stroke-width="1"/>
      <path id="Path_244" data-name="Path 244" d="M574.419,325.085q.88,1.226,1.756,2.454" transform="translate(-551.7 -250.989)" fill="none" stroke="#af4700" stroke-miterlimit="10" stroke-width="1"/>
    </g>
    <g id="Group_56" data-name="Group 56" transform="translate(370.197 248.425)">
      <path id="Path_245" data-name="Path 245" d="M459.461,244.782l27.134,32.653s18.661-35.038,18.661-49.29c0-11.076-.3-25.5.549-26.98s10.81-10.6,10.81-10.6l10.811,14.2-1.272,20.563s-5.843.357-7.537,7.564-12.35,78.134-29.982,77.438c-18.407-.727-38.792-34.341-38.792-34.341Z" transform="translate(-240.566 -145.56)" fill="#e06001"/>
      <rect id="Rectangle_20" data-name="Rectangle 20" width="118.14" height="83.792" transform="translate(272.507 32.557)" fill="#ffa629"/>
      <g id="Group_52" data-name="Group 52" transform="translate(272.507 32.557)">
        <g id="Group_51" data-name="Group 51" clip-path="url(#clip-path-2)">
          <path id="Path_246" data-name="Path 246" d="M488.494,180.513a159.354,159.354,0,0,0,.085,57c1.064,5.79,2.531,11.7,6.038,16.423,7.005,9.442,19.985,11.719,31.684,12.894a561.978,561.978,0,0,0,75.428,2.483" transform="translate(-487.43 -185.253)" fill="none" stroke="#e27e05" stroke-miterlimit="10" stroke-width="1.5" opacity="0.59"/>
        </g>
      </g>
      <path id="Path_247" data-name="Path 247" d="M499.017,216.094c-.781.01-.607-1.235-.145-1.864a61.42,61.42,0,0,1,26.981-20.708,13.279,13.279,0,0,1,5.877-1.209,5.263,5.263,0,0,1,4.659,3.3c.732,2.331-.775,4.707-2.12,6.745a82.464,82.464,0,0,0-5.877,10.5,13.22,13.22,0,0,0-1.566,5.388,5.022,5.022,0,0,0,2.606,4.67,5.732,5.732,0,0,0,4.075-.038c4.442-1.436,7.925-5.444,12.566-5.954a2.76,2.76,0,0,1,2.392.621,3.083,3.083,0,0,1,.581,1.889c.386,5.579-.385,11.93,3.4,16.04,3.356,3.642,9.067,3.928,13.877,2.751s9.307-3.529,14.2-4.309" transform="translate(-206.042 -144.34)" fill="none" stroke="#fff" stroke-miterlimit="10" stroke-width="2.947"/>
      <path id="Path_248" data-name="Path 248" d="M365.3,406.579s-5.624,12.328-13.626,17.95c0,0,12.328,14.706,23.357,1.3,0,0-5.839-3.244,8.867-16.869S365.3,406.579,365.3,406.579Z" transform="translate(-310.254 4.682)" fill="#e06001"/>
      <path id="Path_249" data-name="Path 249" d="M327.776,442.143s-.865-4.324.215-5.622,29.846-8.65,34.387-15.139,4.109-10.163,5.622-10.163,9.3,1.513,10.813,3.459.217,10.38,13.409,4.759c0,0,7.354,6.272,4.759,21.626C396.981,441.063,327.776,441.5,327.776,442.143Z" transform="translate(-327.448 11.072)" fill="#082e38"/>
      <path id="Path_250" data-name="Path 250" d="M488.235,406.579s5.624,12.328,13.626,17.95c0,0-12.328,14.706-23.357,1.3,0,0,5.839-3.244-8.867-16.869S488.235,406.579,488.235,406.579Z" transform="translate(-229.177 4.682)" fill="#e06001"/>
      <path id="Path_251" data-name="Path 251" d="M539.918,442.143s.865-4.324-.217-5.622-29.844-8.65-34.385-15.139-4.109-10.163-5.624-10.163-9.3,1.513-10.813,3.459-.215,10.38-13.407,4.759c0,0-7.354,6.272-4.758,21.626C470.713,441.063,539.918,441.5,539.918,442.143Z" transform="translate(-226.145 11.072)" fill="#082e38"/>
      <path id="Path_252" data-name="Path 252" d="M359.64,399.96a73.339,73.339,0,0,0,23.165.634" transform="translate(-304.597 3.08)" fill="none" stroke="#fdfaf1" stroke-miterlimit="10" stroke-width="2.034"/>
      <path id="Path_253" data-name="Path 253" d="M507.25,270.669s34.218,119.172,44.246,158.7S570.374,503.7,570.374,503.7l-34.807,1.77s-3.539-1.77-6.489-16.517-16.911,18.3-58.209-132.729l-5.454-22.43c-41.3,151.028-64.306,140.41-67.255,155.159s-6.489,16.517-6.489,16.517l-34.807-1.77s8.848-34.808,18.878-74.334,44.246-158.7,44.246-158.7" transform="translate(-306.568 -88.698)" fill="#082e38"/>
      <path id="Path_254" data-name="Path 254" d="M488.575,399.96a73.351,73.351,0,0,1-23.167.634" transform="translate(-229.517 3.08)" fill="none" stroke="#00b0cd" stroke-miterlimit="10" stroke-width="2.034"/>
      <path id="Path_255" data-name="Path 255" d="M385.92,397.5a73.348,73.348,0,0,1-23.167.636" transform="translate(-302.387 1.33)" fill="none" stroke="#00b0cd" stroke-miterlimit="10" stroke-width="2.034"/>
      <path id="Path_256" data-name="Path 256" d="M406.3,276.806a18.754,18.754,0,0,1-4.49,11.1,37.021,37.021,0,0,1-9.334,7.761" transform="translate(-281.292 -84.342)" fill="none" stroke="#00b0cd" stroke-miterlimit="10" stroke-width="2.034"/>
      <path id="Path_257" data-name="Path 257" d="M435.212,275.264A34.381,34.381,0,0,0,456.7,297.152" transform="translate(-250.952 -85.436)" fill="none" stroke="#00b0cd" stroke-miterlimit="10" stroke-width="2.034"/>
      <path id="Path_258" data-name="Path 258" d="M370.546,250.581l31.519,5.822s-12.86,64.5,3.613,75.8c5.167,7.106,82.408,10.047,94.8-3.2,12.075-12.908-5-77.256-5-77.256l22.873-14.636s-17.078-36.652-61.433-35.416C416.312,202.832,382.963,202.938,370.546,250.581Z" transform="translate(-296.855 -137.678)" fill="#fdfaf1"/>
      <path id="Path_259" data-name="Path 259" d="M403.738,313.816,422.69,220.35h76.835l-21.27,87.759Z" transform="translate(-273.294 -124.418)" fill="#6c80ff"/>
      <path id="Path_260" data-name="Path 260" d="M483.989,205.208s8.407-6.556,10.413-8.715a4.072,4.072,0,0,1,1.542,4.859c-1.158,3.162-4.242,4.627-4.319,7.094s3.933,8.638.231,12.573-6.325,2.931-6.325,2.931Z" transform="translate(-216.327 -141.352)" fill="#e06001"/>
      <g id="Group_53" data-name="Group 53" transform="translate(126.209)">
        <path id="Path_261" data-name="Path 261" d="M441.493,220.035c-11.082,2.982-30.34-6.179-34.084-20.092s2.2-27.609,13.284-30.591,22.527,5.66,26.272,19.573S452.573,217.053,441.493,220.035Z" transform="translate(-397.692 -161.037)" fill="#f76b0b"/>
        <path id="Path_262" data-name="Path 262" d="M429.5,179.239l10.061,6.272-7.081,6.362Z" transform="translate(-381.213 -153.6)" fill="#e06001"/>
        <path id="Path_263" data-name="Path 263" d="M416.339,194.257l-9.823,17.524s19.289,10.873,30.6,5.333l.231-24.242Z" transform="translate(-397.531 -143.923)" fill="#f76b0b"/>
        <path id="Path_264" data-name="Path 264" d="M431.259,177.813c1.821-1.994,5.169-2.7,8.428-2.917s6.491-7.568,2.19-10.054-3.014,3.608-14.284,3.365-21.6,1.712-24.8,11.3-1.058,18.82,3.428,22.989,9.4,12.19,8.64,14.448c0,0,12-1.2,7.337-15.341,0,0-1.589-2.625-2.589-4.417s-3.415-6.88,2.042-8.045,6.768,5.056,6.768,5.056l1.961-.106S427.322,182.124,431.259,177.813Z" transform="translate(-401.261 -164.244)" fill="#12203d"/>
      </g>
      <path id="Path_265" data-name="Path 265" d="M382.214,326.388q4.365,1.159,8.73,2.315c.759.2,1.633.506,1.874,1.255a2.4,2.4,0,0,1-.161,1.457l-3.505,10.557a3.711,3.711,0,0,1-1.484,2.293,3.609,3.609,0,0,1-2.194.151,73.983,73.983,0,0,1-9.011-1.888" transform="translate(-292.654 -49.146)" fill="none" stroke="#00b0cd" stroke-miterlimit="10" stroke-width="2.247"/>
      <path id="Path_266" data-name="Path 266" d="M389.517,329.489a165.976,165.976,0,0,1-7.393,30.683" transform="translate(-288.636 -46.945)" fill="none" stroke="#00b0cd" stroke-miterlimit="10" stroke-width="2.247"/>
      <path id="Path_267" data-name="Path 267" d="M383.855,339.062q-1.6,4.619-3.2,9.242a6.492,6.492,0,0,0-.523,2.743,2.221,2.221,0,0,0,1.652,2.035" transform="translate(-290.063 -40.149)" fill="none" stroke="#00b0cd" stroke-miterlimit="10" stroke-width="2.247"/>
      <path id="Path_268" data-name="Path 268" d="M373.519,345.682a48.534,48.534,0,0,0,14.749,4.006" transform="translate(-294.745 -35.45)" fill="none" stroke="#00b0cd" stroke-miterlimit="10" stroke-width="2.247"/>
      <path id="Path_269" data-name="Path 269" d="M374.859,344.259a9.382,9.382,0,0,0,5.306,1.547" transform="translate(-293.794 -36.46)" fill="none" stroke="#00b0cd" stroke-miterlimit="10" stroke-width="2.247"/>
      <path id="Path_270" data-name="Path 270" d="M377.126,333.65" transform="translate(-292.184 -43.991)" fill="none" stroke="#00b0cd" stroke-miterlimit="10" stroke-width="2.247"/>
      <path id="Path_271" data-name="Path 271" d="M463.847,328.124q-4.365,1.157-8.731,2.315c-.761.2-1.635.506-1.876,1.253a2.384,2.384,0,0,0,.163,1.457l3.5,10.558A3.707,3.707,0,0,0,458.392,346a3.591,3.591,0,0,0,2.192.152,74.631,74.631,0,0,0,9.011-1.888" transform="translate(-238.198 -47.914)" fill="none" stroke="#00b0cd" stroke-miterlimit="10" stroke-width="2.247"/>
      <path id="Path_272" data-name="Path 272" d="M452.8,331.225a166.035,166.035,0,0,0,7.393,30.683" transform="translate(-238.469 -45.712)" fill="none" stroke="#00b0cd" stroke-miterlimit="10" stroke-width="2.247"/>
      <path id="Path_273" data-name="Path 273" d="M456.943,340.8q1.6,4.622,3.2,9.242a6.5,6.5,0,0,1,.523,2.744,2.218,2.218,0,0,1-1.65,2.033" transform="translate(-235.526 -38.918)" fill="none" stroke="#00b0cd" stroke-miterlimit="10" stroke-width="2.247"/>
      <path id="Path_274" data-name="Path 274" d="M471.848,347.417a48.536,48.536,0,0,1-14.749,4.008" transform="translate(-235.415 -34.218)" fill="none" stroke="#00b0cd" stroke-miterlimit="10" stroke-width="2.247"/>
      <path id="Path_275" data-name="Path 275" d="M466.589,345.994a9.392,9.392,0,0,1-5.307,1.547" transform="translate(-232.446 -35.229)" fill="none" stroke="#00b0cd" stroke-miterlimit="10" stroke-width="2.247"/>
      <path id="Path_276" data-name="Path 276" d="M462.118,335.385" transform="translate(-231.852 -42.759)" fill="none" stroke="#00b0cd" stroke-miterlimit="10" stroke-width="2.247"/>
      <g id="Group_55" data-name="Group 55" transform="translate(130.444 95.932)">
        <g id="Group_54" data-name="Group 54" clip-path="url(#clip-path-3)">
          <path id="Path_277" data-name="Path 277" d="M487.141,219.4c-11.119,10.131-29.086,7.59-41.944,15.4-7.754,4.709-12.86,12.714-17.134,20.718A201.29,201.29,0,0,0,414.255,287.9c-3,9.19-5.324,19.222-2.308,28.408" transform="translate(-398.91 -221.024)" fill="none" stroke="#425ee8" stroke-miterlimit="10" stroke-width="2.125" opacity="0.59"/>
        </g>
      </g>
      <path id="Path_279" data-name="Path 279" d="M376.055,230.358s-7.549,29.887-10.613,44.188.108,29.539,29.714,21.05c29.068-8.334,33.335-30.986,47.891-27.667s18.9-4.341,18.9-10.469-.482-7.01-.482-7.01-10.261-5-30.418,1.392C414.2,257.18,391.713,272,391.713,272l13.121-36.211Z" transform="translate(-301.141 -117.313)" fill="#e06001"/>
      <path id="Path_280" data-name="Path 280" d="M413.849,238.293s-7.611,3.331-5.075,22.356c0,0,14.111,3.488,21.247-.952,0,0,2.536-7.768,2.219-10.622S420.031,239.245,413.849,238.293Z" transform="translate(-270.086 -111.68)" fill="#e96610"/>
    </g>
    <g id="Group_59" data-name="Group 59" transform="translate(340.261 458.503)">
      <path id="Path_281" data-name="Path 281" d="M327.265,355.674c1.276,3.324,3.25,7.467,6.8,7.217a4.111,4.111,0,0,0,3.466-5.112c3.548,3.285,5.906,7.751,9.71,10.733s10.186,3.767,12.916-.221a9.806,9.806,0,0,1,1.783-2.5c2.271-1.741,5.241.775,7.381,2.672a20.069,20.069,0,0,0,7.534,4.2c3.136.939,7.252.7,8.766-2.2a5.892,5.892,0,0,0-.6-5.755,17.434,17.434,0,0,0-4.345-4.182q-2.762-2.1-5.526-4.2a3,3,0,0,1-.9-.918c-.549-1.04.308-2.32,1.349-2.864s2.264-.669,3.3-1.228c2.961-1.6,2.955-6.267.66-8.734s-5.94-3.139-9.308-3.095-6.752.657-10.088.181c-1.944-.277-4.24-1.493-4.052-3.449a15.907,15.907,0,0,1,.879-2.435,4.152,4.152,0,0,0-2.129-4.355,10.977,10.977,0,0,0-5.01-1.2,74.54,74.54,0,0,0-30.984,4.676c-2.763,1.046-4.155.988-3.2,3.692.674,1.9,3.421,4.153,4.613,5.872A62.591,62.591,0,0,1,327.265,355.674Z" transform="translate(-306.088 -258.016)" fill="#082e38"/>
      <g id="Group_57" data-name="Group 57" transform="translate(10.938 73.851)">
        <path id="Path_282" data-name="Path 282" d="M316.338,332.707c11.2-.838,14.158.954,24.43,5.5a101.928,101.928,0,0,1,27.775,18.812c3.175,2.944,6.521,6.2,10.808,6.81" transform="translate(-316.338 -328.731)" fill="none" stroke="#00b0cd" stroke-miterlimit="10" stroke-width="1"/>
        <path id="Path_283" data-name="Path 283" d="M321.611,332.975c1.854,2.871,2.666,6.265,3.673,9.531s2.329,6.595,4.883,8.864" transform="translate(-312.595 -328.399)" fill="none" stroke="#00b0cd" stroke-miterlimit="10" stroke-width="1"/>
        <path id="Path_284" data-name="Path 284" d="M331.231,336.3c1.52,3.334,1.939,7.043,2.739,10.617s2.118,7.245,4.918,9.606" transform="translate(-305.766 -326.041)" fill="none" stroke="#00b0cd" stroke-miterlimit="10" stroke-width="1"/>
        <path id="Path_285" data-name="Path 285" d="M340.473,342.036q.839,4.576,1.936,9.1c.434,1.8.978,3.717,2.413,4.887" transform="translate(-299.206 -321.967)" fill="none" stroke="#00b0cd" stroke-miterlimit="10" stroke-width="1"/>
        <path id="Path_286" data-name="Path 286" d="M322.2,334.7a54.764,54.764,0,0,1,10.24-3.733,21.688,21.688,0,0,1,10.8.029" transform="translate(-312.177 -330.298)" fill="none" stroke="#00b0cd" stroke-miterlimit="10" stroke-width="1"/>
        <path id="Path_287" data-name="Path 287" d="M331.285,336.742q3.088-.734,6.176-1.464a12.946,12.946,0,0,1,5.548-.487" transform="translate(-305.728 -327.212)" fill="none" stroke="#00b0cd" stroke-miterlimit="10" stroke-width="1"/>
        <path id="Path_288" data-name="Path 288" d="M340.669,341.846a17.175,17.175,0,0,1,11.388-.913" transform="translate(-299.067 -323.157)" fill="none" stroke="#00b0cd" stroke-miterlimit="10" stroke-width="1"/>
      </g>
      <path id="Path_289" data-name="Path 289" d="M314.076,305.3c.874-2.269,1.924-4.586,3.813-6.118s4.846-2.007,6.718-.456c.828.684,1.45,1.736,2.5,1.965a3.17,3.17,0,0,0,1.971-.368c2.915-1.344,5.056-3.9,7.12-6.356s4.264-4.981,7.228-6.215,6.9-.739,8.642,1.96a17.206,17.206,0,0,0,1.411,2.372c1.691,1.881,4.709,1.209,7.171.638,7.183-1.665,15.686-.679,20.387,5a7.518,7.518,0,0,1,1.883,4.076c.227,2.811-1.893,5.318-4.314,6.763s-5.21,2.168-7.682,3.524c-.86.472-1.787,1.245-1.636,2.214a6.105,6.105,0,0,0,.74,1.488c1.058,2.295-1.934,4.328-4.394,4.909a37.912,37.912,0,0,1-20.8-1c-1.912-.65-4.437-1.281-5.613.361a7.717,7.717,0,0,0-.744,1.812,7.131,7.131,0,0,1-5.184,4.047,18.875,18.875,0,0,1-6.809-.056c-3.847-.537-14.135,2.52-15.968-1.176C308.44,320.5,312.557,309.234,314.076,305.3Z" transform="translate(-309.941 -287.107)" fill="#12444e"/>
      <g id="Group_58" data-name="Group 58" transform="translate(2.341 8.891)">
        <path id="Path_290" data-name="Path 290" d="M311.31,316.509c9.259-8.6,9.192-11.35,20.872-15.267s24.27-3.941,36.581-3.529c3.611.121,7.4.239,10.628-1.39" transform="translate(-311.31 -289.456)" fill="none" stroke="#00b0cd" stroke-miterlimit="10" stroke-width="1"/>
        <path id="Path_291" data-name="Path 291" d="M336.953,299.625a44.283,44.283,0,0,0,5.767-4.092,12.342,12.342,0,0,1,6.405-2.77" transform="translate(-293.107 -291.983)" fill="none" stroke="#00b0cd" stroke-miterlimit="10" stroke-width="1"/>
        <path id="Path_292" data-name="Path 292" d="M337.356,297.048a57.285,57.285,0,0,0,3.3,5.911,11.314,11.314,0,0,0,5.1,4.3" transform="translate(-292.821 -288.942)" fill="none" stroke="#00b0cd" stroke-miterlimit="10" stroke-width="1"/>
        <path id="Path_293" data-name="Path 293" d="M329.152,301.487a25.659,25.659,0,0,1,7.443-9.18" transform="translate(-298.645 -292.307)" fill="none" stroke="#00b0cd" stroke-miterlimit="10" stroke-width="1"/>
        <path id="Path_294" data-name="Path 294" d="M329.316,297.872c2.028,2.484,3.18,5.559,4.914,8.257s4.4,5.167,7.612,5.227" transform="translate(-298.528 -288.357)" fill="none" stroke="#00b0cd" stroke-miterlimit="10" stroke-width="1"/>
        <path id="Path_295" data-name="Path 295" d="M321.088,304.871q1.665-2.485,3.326-4.971c1.741-2.6,3.668-5.354,6.6-6.446" transform="translate(-304.369 -291.493)" fill="none" stroke="#00b0cd" stroke-miterlimit="10" stroke-width="1"/>
        <path id="Path_296" data-name="Path 296" d="M319.264,301.31c2.683,1.255,4.133,4.541,6.981,5.354" transform="translate(-305.664 -285.916)" fill="none" stroke="#00b0cd" stroke-miterlimit="10" stroke-width="1"/>
      </g>
    </g>
  </g>
</svg>
