<?xml version="1.0" encoding="utf-8"?>
<!-- Generator: Adobe Illustrator 24.0.1, SVG Export Plug-In . SVG Version: 6.00 Build 0)  -->
<svg version="1.1" id="Outline" xmlns="http://www.w3.org/2000/svg" xmlns:xlink="http://www.w3.org/1999/xlink" x="0px" y="0px"
	 viewBox="0 0 512 512" style="enable-background:new 0 0 512 512;" xml:space="preserve">
<style type="text/css">
	.st0{fill:#E83131;}
</style>
<path class="st0" d="M362.7,170.7H149.3v-21.3c0-58.9,47.7-106.7,106.6-106.7c38.8,0,74.6,21.1,93.4,55c5.7,10.3,18.7,14,29,8.3
	c10.3-5.7,14-18.7,8.3-29c-39.9-72.2-130.8-98.3-203-58.3c-47.5,26.3-77,76.4-77,130.7v30.4c-38.8,16.9-63.9,55.3-64,97.6v128
	c0.1,58.9,47.8,106.6,106.7,106.7h213.3c58.9-0.1,106.6-47.8,106.7-106.7v-128C469.3,218.5,421.5,170.7,362.7,170.7z M426.7,405.3
	c0,35.3-28.7,64-64,64H149.3c-35.3,0-64-28.7-64-64v-128c0-35.3,28.7-64,64-64h213.3c35.3,0,64,28.7,64,64V405.3z"/>
<path class="st0" d="M256,298.7c-11.8,0-21.3,9.6-21.3,21.3v42.7c0,11.8,9.6,21.3,21.3,21.3c11.8,0,21.3-9.6,21.3-21.3V320
	C277.3,308.2,267.8,298.7,256,298.7z"/>
</svg>
