<svg id="Layer_1" data-name="Layer 1" xmlns="http://www.w3.org/2000/svg" xmlns:xlink="http://www.w3.org/1999/xlink" viewBox="0 0 123 123"><defs><linearGradient id="linear-gradient" x1="-216.23" y1="204.83" x2="-215.23" y2="204.83" gradientTransform="matrix(123, 0, 0, -123, 26596, 25256)" gradientUnits="userSpaceOnUse"><stop offset="0" stop-color="#6a11cb"/><stop offset="1" stop-color="#2575fc"/></linearGradient></defs><title>AutoRun_logo_app</title><g id="Group_67" data-name="Group 67"><rect id="Rectangle_25" data-name="Rectangle 25" width="123" height="123" rx="17.69" fill="url(#linear-gradient)"/><g id="Group_66" data-name="Group 66"><path id="Path_107" data-name="Path 107" d="M71.58,61.75a4.89,4.89,0,0,1-4.89,4.88H22.14a4.89,4.89,0,0,1,0-9.77H66.69A4.89,4.89,0,0,1,71.58,61.75Z" fill="#fff"/><path id="Path_108" data-name="Path 108" d="M109.52,61.75a4.88,4.88,0,0,1-4.88,4.88H86.76a4.89,4.89,0,1,1,0-9.77h17.89a4.89,4.89,0,0,1,4.88,4.89Z" fill="#fff"/><path id="Path_109" data-name="Path 109" d="M42.56,47.09" fill="#fff"/><path id="Path_110" data-name="Path 110" d="M87.94,93.54" fill="#fff"/><path id="Path_111" data-name="Path 111" d="M101,100.07a13.65,13.65,0,0,1-13,4.31c-2.46-.44-6.07-2.82-6.07-2.82l-20.74-14-20.75,14s-3.61,2.38-6.07,2.82a13.66,13.66,0,0,1-13-4.31c-5.1-5.37-2.11-13.2-2.11-13.2L26,73.81l0,0s0,0,0-.05c.33-.56,2.49-3.94,6.33-2.64,4.08,1.39,3,6.35,3,6.61h0L28.61,90.34a3.57,3.57,0,0,0,.84,3.76c1.69,1.5,4.22,0,4.22,0L54.84,79.42a10.62,10.62,0,0,1,12.58,0L88.59,94.1s2.53,1.5,4.23,0a3.56,3.56,0,0,0,.83-3.76L61.12,29.15,46.4,56.86H34.85L52.17,23.7a10.19,10.19,0,0,1,17.91,0L87.4,56.86h-.65a4.89,4.89,0,1,0,0,9.77H92.5l10.58,20.24S106.07,94.7,101,100.07Z" fill="#fff"/><path id="Path_112" data-name="Path 112" d="M80.2,57.24v0" fill="#fff"/></g></g></svg>