<svg id="Component_1_1" data-name="Component 1 1" xmlns="http://www.w3.org/2000/svg" xmlns:xlink="http://www.w3.org/1999/xlink" viewBox="0 0 131.63 105.12"><defs><linearGradient id="linear-gradient" x1="-208.58" y1="185.99" x2="-207.58" y2="185.99" gradientTransform="matrix(48.15, 0, 0, -8.66, 10075.42, 1648.57)" gradientUnits="userSpaceOnUse"><stop offset="0" stop-color="#6a11cb"/><stop offset="0.15" stop-color="#6020d2"/><stop offset="1" stop-color="#2575fc"/></linearGradient><linearGradient id="linear-gradient-2" x1="-210.19" y1="195.31" x2="-209.19" y2="195.31" gradientTransform="matrix(75.92, 0, 0, -76.5, 15992.21, 14979.51)" gradientUnits="userSpaceOnUse"><stop offset="0" stop-color="#6a11cb"/><stop offset="1" stop-color="#2575fc"/></linearGradient></defs><title>AutoRun_logo</title><g id="Group_12" data-name="Group 12"><path id="Path_9" data-name="Path 9" d="M80.51,38.47a4.33,4.33,0,0,1-4.33,4.33H36.69a4.33,4.33,0,0,1,0-8.66H76.18A4.33,4.33,0,0,1,80.51,38.47Z" transform="translate(0 -0.02)" fill="url(#linear-gradient)"/><path id="Path_10" data-name="Path 10" d="M114.14,38.47a4.32,4.32,0,0,1-4.32,4.33H94a4.33,4.33,0,1,1,0-8.66h15.85a4.33,4.33,0,0,1,4.33,4.33Z" transform="translate(0 -0.02)" fill="#ffd933"/><path id="Path_11" data-name="Path 11" d="M54.79,25.48" transform="translate(0 -0.02)" fill="#f0f"/><path id="Path_12" data-name="Path 12" d="M95,66.65" transform="translate(0 -0.02)" fill="#f0f"/><path id="Path_13" data-name="Path 13" d="M106.56,72.44A12.07,12.07,0,0,1,95,76.26a19.17,19.17,0,0,1-5.39-2.5L71.25,61.36,52.86,73.76a19.25,19.25,0,0,1-5.38,2.5,12.08,12.08,0,0,1-11.55-3.82c-4.52-4.76-1.87-11.7-1.87-11.7l6-11.58,0,0,0,0c.29-.49,2.2-3.49,5.61-2.33,3.61,1.22,2.67,5.62,2.62,5.85h0L42.42,63.82a3.16,3.16,0,0,0,.74,3.34c1.5,1.32,3.74,0,3.74,0l18.77-13a9.42,9.42,0,0,1,11.16,0l18.76,13s2.24,1.33,3.75,0a3.16,3.16,0,0,0,.73-3.33L71.25,9.58,58.19,34.14H48L63.31,4.74a9,9,0,0,1,15.87,0l15.36,29.4H94a4.33,4.33,0,1,0,0,8.66h5.1l9.37,17.94S111.09,67.68,106.56,72.44Z" transform="translate(0 -0.02)" fill="url(#linear-gradient-2)"/><path id="Path_14" data-name="Path 14" d="M88.16,34.48v0" transform="translate(0 -0.02)" fill="#f0f"/></g><g id="AutoRun" style="isolation:isolate"><text transform="translate(0 99.49)" font-size="21" font-family="VarinoNormal-Regular, Varino" style="isolation:isolate"><tspan letter-spacing="-0.02em">A</tspan><tspan x="19.3" y="0" letter-spacing="0em">u</tspan><tspan x="38.01" y="0" letter-spacing="-0.05em">t</tspan><tspan x="55.67" y="0" letter-spacing="-0.03em">o</tspan><tspan x="75.35" y="0" letter-spacing="-0.04em">R</tspan><tspan x="94.42" y="0" letter-spacing="-0.01em">u</tspan><tspan x="112.92" y="0">n</tspan></text></g></svg>